<svg viewBox="0 0 749 228" fill="none" xmlns="http://www.w3.org/2000/svg">
<path d="M49.4393 153.454C26.5973 153.454 8.77734 136.93 8.77734 114.25C8.77734 90.7597 27.8933 74.8837 51.2213 74.8837C73.7393 74.8837 91.2353 90.7597 91.2353 114.25C91.2353 138.712 73.9013 153.454 49.4393 153.454ZM34.8593 113.764C34.8593 124.294 42.1493 130.126 50.5733 130.126C59.3213 130.126 66.6113 124.294 66.6113 113.764C66.6113 103.396 59.3213 97.4017 50.5733 97.4017C42.3113 97.4017 34.8593 103.882 34.8593 113.764ZM91.7213 132.88C92.2073 127.372 95.6093 122.998 102.414 123.16C105.654 123.322 109.38 123.322 113.754 123.322C113.754 117.49 113.592 111.82 113.592 106.15C109.542 106.15 106.302 106.15 103.224 106.312C96.4193 106.474 93.0173 102.1 92.5313 96.5917C91.8833 90.2737 95.2853 84.9277 101.442 84.2797C104.682 83.9557 108.246 83.6317 113.106 83.4697L112.62 71.9677C112.134 63.0577 115.698 58.1977 123.636 58.1977C130.926 58.1977 136.92 62.2477 138.054 77.3137C139.512 95.6197 139.188 144.868 138.054 169.168C137.568 179.536 133.518 186.016 125.418 186.016C117.318 186.016 112.782 180.022 113.106 169.168L113.592 146.002C108.246 145.84 104.034 145.516 100.632 145.192C94.4753 144.544 91.0733 139.198 91.7213 132.88ZM193.121 130.936C176.597 130.936 162.179 119.92 162.179 104.044C162.179 97.7257 164.609 91.8937 169.145 87.6817C159.587 88.3297 155.375 85.2517 155.051 78.9337C154.565 72.6157 158.291 69.0517 165.905 68.4037L181.457 67.4317V65.4877C181.781 56.9017 183.725 51.5557 192.959 51.5557C199.925 51.5557 203.489 55.1197 203.489 65.6497V67.1077C208.187 67.1077 212.561 67.2697 216.287 67.4317C224.387 67.9177 227.627 71.8057 227.303 77.4757C226.979 83.4697 222.767 86.3857 215.963 86.7097C220.985 91.0837 223.415 97.4017 223.415 104.368C223.415 121.378 209.807 130.936 193.121 130.936ZM182.429 100.966C182.429 107.446 187.127 111.982 192.797 111.982C198.953 111.982 203.327 107.446 203.327 100.966C203.327 94.6477 198.953 89.7877 192.797 89.7877C187.127 89.7877 182.429 94.6477 182.429 100.966ZM203.327 160.744C203.327 141.142 218.069 129.478 240.101 129.478C260.351 129.478 274.931 140.98 274.931 160.744C274.931 178.24 261.971 192.01 240.101 192.01C218.231 192.01 203.327 178.24 203.327 160.744ZM227.303 160.42C227.303 166.576 232.325 171.112 239.615 171.112C247.229 171.112 252.251 166.576 252.251 160.42C252.251 153.454 247.391 149.566 239.615 149.566C232.325 149.566 227.303 153.13 227.303 160.42ZM232.163 70.6717C231.839 61.7617 233.297 54.9577 242.855 54.3097C249.335 53.8237 255.491 56.7397 255.815 71.8057C255.977 76.0177 255.977 79.0957 256.139 81.6877C259.541 81.3637 263.591 81.3637 266.993 81.3637C266.993 78.1237 266.831 74.7217 266.831 70.8337C266.669 59.1697 269.423 53.1757 277.685 52.8517C284.327 52.5277 289.997 56.9017 289.997 71.9677C289.997 87.0337 290.645 89.9497 289.673 114.25C289.187 124.618 285.785 131.098 277.685 131.098C270.395 131.098 265.697 125.104 266.345 114.25C266.669 110.524 266.831 107.122 266.993 103.234C263.753 103.396 259.865 103.558 256.301 103.558C256.301 105.502 256.301 107.608 256.139 109.876C255.815 120.244 251.603 126.886 243.503 126.724C236.213 126.562 232.325 120.73 232.487 109.876C232.811 81.5257 232.973 99.0217 232.163 70.6717ZM330.322 168.358C315.742 167.386 311.692 163.984 311.53 153.778C311.044 128.506 310.234 108.904 310.72 78.1237C310.882 70.9957 314.932 67.7557 323.68 67.2697C333.886 66.6217 367.258 66.2977 377.626 66.6217C386.212 66.9457 389.452 70.5097 389.452 77.7997C389.452 82.9837 386.698 87.8437 376.816 87.5197C367.096 87.1957 344.74 87.3577 339.394 87.6817C336.64 87.6817 335.992 88.4917 335.992 90.9217C335.506 108.742 335.668 128.992 336.154 140.332C336.316 144.868 337.126 145.354 341.986 145.678C349.6 146.164 365.152 146.326 379.246 145.192C389.614 144.382 393.664 148.918 394.15 156.046C394.636 163.336 389.938 166.9 381.19 167.548C364.666 168.844 346.36 169.492 330.322 168.358ZM402.412 72.9397C402.088 64.0297 404.68 58.1977 415.21 58.1977C422.5 58.1977 428.332 62.2477 428.656 77.3137C428.818 85.8997 428.332 94.3237 428.494 102.91C432.382 102.91 436.918 103.072 440.644 103.234C445.666 103.558 450.202 108.58 450.202 114.088C450.202 119.758 447.772 124.618 441.94 126.562C438.538 127.696 433.03 128.02 428.818 128.182C428.818 142.6 428.818 159.286 428.332 169.168C427.846 179.536 423.472 186.016 415.372 186.016C407.272 186.016 402.412 180.022 403.222 169.168C403.87 159.772 404.518 115.06 403.384 87.8437C403.222 83.4697 402.574 76.9897 402.412 72.9397ZM457.804 126.238C452.296 123.646 449.542 117.328 455.374 106.798C464.446 90.4357 479.674 72.7777 491.824 60.1417C496.846 54.9577 505.108 52.0417 511.264 56.9017C516.448 60.9517 517.744 68.2417 511.426 74.5597L506.08 79.9057C514.18 88.6537 523.738 95.7817 533.782 103.234C542.53 109.714 541.396 117.328 538.156 121.216C534.43 126.076 528.274 127.534 517.582 120.082C509.806 115.06 499.438 107.446 490.204 98.3737C485.02 104.692 480.484 110.848 476.92 116.68C470.278 127.21 463.96 129.154 457.804 126.238ZM492.958 189.094C488.422 185.53 486.802 179.86 493.444 170.788C498.952 163.174 514.18 147.136 526.33 134.176C531.19 128.992 538.156 128.344 543.664 133.852C555.976 146.002 570.88 161.878 577.198 170.788C582.544 178.402 582.058 184.72 577.036 188.77C571.69 192.982 564.562 191.524 559.216 185.044C551.602 175.972 544.636 168.196 538.48 161.23C535.726 158.152 534.592 158.152 532 161.392C526.168 168.682 518.23 177.754 510.94 185.368C505.108 191.362 497.332 192.496 492.958 189.094ZM527.95 86.0617C528.436 80.5537 531.838 75.8557 538.642 76.1797C544.96 76.5037 552.736 76.1797 560.188 75.6937L559.702 66.2977C559.216 57.3877 563.428 52.5277 571.366 52.5277C578.656 52.5277 584.002 56.5777 584.65 71.6437C585.298 88.8157 585.136 108.742 584.65 122.998C584.326 133.366 580.114 139.846 572.014 139.846C563.914 139.846 559.864 135.148 560.674 124.294C560.998 117.004 561.16 107.77 560.998 97.8877C553.222 98.5357 544.15 98.5357 537.346 97.5637C531.19 96.7537 527.302 92.3797 527.95 86.0617ZM609.099 164.632C602.295 162.04 600.513 156.694 604.239 144.22C610.881 122.026 627.243 94.1617 641.013 71.9677C644.253 66.6217 652.515 61.7617 659.967 65.8117C665.799 68.8897 668.229 76.0177 663.855 83.6317L656.565 96.1057C664.989 112.63 676.329 127.534 686.697 139.846C695.121 149.89 694.149 157.342 689.937 161.392C684.915 166.09 677.625 165.28 668.229 156.208C660.777 148.918 649.437 134.176 642.471 120.73C636.315 131.908 630.645 142.762 626.433 153.13C621.411 165.28 615.741 167.062 609.099 164.632ZM709.215 169.168C710.187 137.416 710.187 100.48 709.539 71.9677C709.377 63.0577 714.075 58.1977 722.013 58.1977C729.303 58.1977 734.487 62.2477 734.973 77.3137C735.621 95.6197 735.297 144.868 734.163 169.168C733.677 179.536 729.627 186.016 721.527 186.016C713.427 186.016 708.891 180.022 709.215 169.168Z" fill="#1E2022" fill-opacity="0.4"/>
<path d="M45.4393 144.72C22.8793 144.72 5.2793 128.4 5.2793 106C5.2793 82.8001 24.1593 67.1201 47.1993 67.1201C69.4393 67.1201 86.7193 82.8001 86.7193 106C86.7193 130.16 69.5993 144.72 45.4393 144.72ZM31.0393 105.52C31.0393 115.92 38.2393 121.68 46.5593 121.68C55.1993 121.68 62.3993 115.92 62.3993 105.52C62.3993 95.2801 55.1993 89.3601 46.5593 89.3601C38.3993 89.3601 31.0393 95.7601 31.0393 105.52ZM87.1993 124.4C87.6793 118.96 91.0393 114.64 97.7593 114.8C100.959 114.96 104.639 114.96 108.959 114.96C108.959 109.2 108.799 103.6 108.799 98.0001C104.799 98.0001 101.599 98.0001 98.5593 98.1601C91.8393 98.3201 88.4793 94.0001 87.9993 88.5601C87.3593 82.3201 90.7193 77.0401 96.7993 76.4001C99.9993 76.0801 103.519 75.7601 108.319 75.6001L107.839 64.2401C107.359 55.4401 110.879 50.6401 118.719 50.6401C125.919 50.6401 131.839 54.6401 132.959 69.5201C134.399 87.6001 134.079 136.24 132.959 160.24C132.479 170.48 128.479 176.88 120.479 176.88C112.479 176.88 107.999 170.96 108.319 160.24L108.799 137.36C103.519 137.2 99.3593 136.88 95.9993 136.56C89.9193 135.92 86.5593 130.64 87.1993 124.4ZM187.347 122.48C171.027 122.48 156.787 111.6 156.787 95.9201C156.787 89.6801 159.187 83.9201 163.667 79.7601C154.227 80.4001 150.067 77.3601 149.747 71.1201C149.267 64.8801 152.947 61.3601 160.467 60.7201L175.827 59.7601V57.8401C176.147 49.3601 178.067 44.0801 187.187 44.0801C194.067 44.0801 197.587 47.6001 197.587 58.0001V59.4401C202.227 59.4401 206.547 59.6001 210.227 59.7601C218.227 60.2401 221.427 64.0801 221.107 69.6801C220.787 75.6001 216.627 78.4801 209.907 78.8001C214.867 83.1201 217.267 89.3601 217.267 96.2401C217.267 113.04 203.827 122.48 187.347 122.48ZM176.787 92.8801C176.787 99.2801 181.427 103.76 187.027 103.76C193.107 103.76 197.427 99.2801 197.427 92.8801C197.427 86.6401 193.107 81.8401 187.027 81.8401C181.427 81.8401 176.787 86.6401 176.787 92.8801ZM197.427 151.92C197.427 132.56 211.987 121.04 233.747 121.04C253.747 121.04 268.147 132.4 268.147 151.92C268.147 169.2 255.347 182.8 233.747 182.8C212.147 182.8 197.427 169.2 197.427 151.92ZM221.107 151.6C221.107 157.68 226.067 162.16 233.267 162.16C240.787 162.16 245.747 157.68 245.747 151.6C245.747 144.72 240.947 140.88 233.267 140.88C226.067 140.88 221.107 144.4 221.107 151.6ZM225.907 62.9601C225.587 54.1601 227.027 47.4401 236.467 46.8001C242.867 46.3201 248.947 49.2001 249.267 64.0801C249.427 68.2401 249.427 71.2801 249.587 73.8401C252.947 73.5201 256.947 73.5201 260.307 73.5201C260.307 70.3201 260.147 66.9601 260.147 63.1201C259.987 51.6001 262.707 45.6801 270.867 45.3601C277.427 45.0401 283.027 49.3601 283.027 64.2401C283.027 79.1201 283.667 82.0001 282.707 106C282.227 116.24 278.867 122.64 270.867 122.64C263.667 122.64 259.027 116.72 259.667 106C259.987 102.32 260.147 98.9601 260.307 95.1201C257.107 95.2801 253.267 95.4401 249.747 95.4401C249.747 97.3601 249.747 99.4401 249.587 101.68C249.267 111.92 245.107 118.48 237.107 118.32C229.907 118.16 226.067 112.4 226.227 101.68C226.547 73.6801 226.707 90.9601 225.907 62.9601ZM322.854 159.44C308.454 158.48 304.454 155.12 304.294 145.04C303.814 120.08 303.014 100.72 303.494 70.3201C303.654 63.2801 307.654 60.0801 316.294 59.6001C326.374 58.9601 359.334 58.6401 369.574 58.9601C378.054 59.2801 381.254 62.8001 381.254 70.0001C381.254 75.1201 378.534 79.9201 368.774 79.6001C359.174 79.2801 337.094 79.4401 331.814 79.7601C329.094 79.7601 328.454 80.5601 328.454 82.9601C327.974 100.56 328.134 120.56 328.614 131.76C328.774 136.24 329.574 136.72 334.374 137.04C341.894 137.52 357.254 137.68 371.174 136.56C381.414 135.76 385.414 140.24 385.894 147.28C386.374 154.48 381.734 158 373.094 158.64C356.774 159.92 338.694 160.56 322.854 159.44ZM394.054 65.2001C393.734 56.4001 396.294 50.6401 406.694 50.6401C413.894 50.6401 419.654 54.6401 419.974 69.5201C420.134 78.0001 419.654 86.3201 419.814 94.8001C423.654 94.8001 428.134 94.9601 431.814 95.1201C436.774 95.4401 441.254 100.4 441.254 105.84C441.254 111.44 438.854 116.24 433.094 118.16C429.734 119.28 424.294 119.6 420.134 119.76C420.134 134 420.134 150.48 419.654 160.24C419.174 170.48 414.854 176.88 406.854 176.88C398.854 176.88 394.054 170.96 394.854 160.24C395.494 150.96 396.134 106.8 395.014 79.9201C394.854 75.6001 394.214 69.2001 394.054 65.2001ZM448.762 117.84C443.322 115.28 440.601 109.04 446.362 98.6401C455.322 82.4801 470.362 65.0401 482.362 52.5601C487.322 47.4401 495.482 44.5601 501.562 49.3601C506.682 53.3601 507.962 60.5601 501.722 66.8001L496.442 72.0801C504.442 80.7201 513.882 87.7601 523.801 95.1201C532.442 101.52 531.322 109.04 528.122 112.88C524.442 117.68 518.362 119.12 507.802 111.76C500.122 106.8 489.882 99.2801 480.762 90.3201C475.642 96.5601 471.162 102.64 467.642 108.4C461.082 118.8 454.842 120.72 448.762 117.84ZM483.482 179.92C479.002 176.4 477.402 170.8 483.962 161.84C489.402 154.32 504.442 138.48 516.442 125.68C521.242 120.56 528.122 119.92 533.562 125.36C545.722 137.36 560.442 153.04 566.682 161.84C571.962 169.36 571.482 175.6 566.522 179.6C561.242 183.76 554.202 182.32 548.922 175.92C541.402 166.96 534.522 159.28 528.442 152.4C525.722 149.36 524.602 149.36 522.042 152.56C516.282 159.76 508.442 168.72 501.242 176.24C495.482 182.16 487.802 183.28 483.482 179.92ZM518.042 78.1601C518.522 72.7201 521.882 68.0801 528.602 68.4001C534.842 68.7201 542.522 68.4001 549.882 67.9201L549.402 58.6401C548.922 49.8401 553.082 45.0401 560.922 45.0401C568.122 45.0401 573.402 49.0401 574.042 63.9201C574.682 80.8801 574.522 100.56 574.042 114.64C573.722 124.88 569.562 131.28 561.562 131.28C553.562 131.28 549.562 126.64 550.362 115.92C550.682 108.72 550.842 99.6001 550.682 89.8401C543.002 90.4801 534.042 90.4801 527.322 89.5201C521.242 88.7201 517.402 84.4001 518.042 78.1601ZM598.189 155.76C591.469 153.2 589.709 147.92 593.389 135.6C599.949 113.68 616.109 86.1601 629.709 64.2401C632.909 58.9601 641.069 54.1601 648.429 58.1601C654.189 61.2001 656.589 68.2401 652.269 75.7601L645.069 88.0801C653.389 104.4 664.589 119.12 674.829 131.28C683.149 141.2 682.189 148.56 678.029 152.56C673.069 157.2 665.869 156.4 656.589 147.44C649.229 140.24 638.029 125.68 631.149 112.4C625.069 123.44 619.469 134.16 615.309 144.4C610.349 156.4 604.749 158.16 598.189 155.76ZM697.069 160.24C698.029 128.88 698.029 92.4001 697.389 64.2401C697.229 55.4401 701.869 50.6401 709.709 50.6401C716.909 50.6401 722.029 54.6401 722.509 69.5201C723.149 87.6001 722.829 136.24 721.709 160.24C721.229 170.48 717.229 176.88 709.229 176.88C701.229 176.88 696.749 170.96 697.069 160.24Z" fill="#5500FF"/>
<mask id="mask0_400_56" style="mask-type:luminance" maskUnits="userSpaceOnUse" x="0" y="39" width="728" height="149">
<path d="M728 39H0V188H728V39Z" fill="white"/>
<path d="M45.4393 144.72C22.8793 144.72 5.2793 128.4 5.2793 106C5.2793 82.8001 24.1593 67.1201 47.1993 67.1201C69.4393 67.1201 86.7193 82.8001 86.7193 106C86.7193 130.16 69.5993 144.72 45.4393 144.72ZM31.0393 105.52C31.0393 115.92 38.2393 121.68 46.5593 121.68C55.1993 121.68 62.3993 115.92 62.3993 105.52C62.3993 95.2801 55.1993 89.3601 46.5593 89.3601C38.3993 89.3601 31.0393 95.7601 31.0393 105.52ZM87.1993 124.4C87.6793 118.96 91.0393 114.64 97.7593 114.8C100.959 114.96 104.639 114.96 108.959 114.96C108.959 109.2 108.799 103.6 108.799 98.0001C104.799 98.0001 101.599 98.0001 98.5593 98.1601C91.8393 98.3201 88.4793 94.0001 87.9993 88.5601C87.3593 82.3201 90.7193 77.0401 96.7993 76.4001C99.9993 76.0801 103.519 75.7601 108.319 75.6001L107.839 64.2401C107.359 55.4401 110.879 50.6401 118.719 50.6401C125.919 50.6401 131.839 54.6401 132.959 69.5201C134.399 87.6001 134.079 136.24 132.959 160.24C132.479 170.48 128.479 176.88 120.479 176.88C112.479 176.88 107.999 170.96 108.319 160.24L108.799 137.36C103.519 137.2 99.3593 136.88 95.9993 136.56C89.9193 135.92 86.5593 130.64 87.1993 124.4ZM187.347 122.48C171.027 122.48 156.787 111.6 156.787 95.9201C156.787 89.6801 159.187 83.9201 163.667 79.7601C154.227 80.4001 150.067 77.3601 149.747 71.1201C149.267 64.8801 152.947 61.3601 160.467 60.7201L175.827 59.7601V57.8401C176.147 49.3601 178.067 44.0801 187.187 44.0801C194.067 44.0801 197.587 47.6001 197.587 58.0001V59.4401C202.227 59.4401 206.547 59.6001 210.227 59.7601C218.227 60.2401 221.427 64.0801 221.107 69.6801C220.787 75.6001 216.627 78.4801 209.907 78.8001C214.867 83.1201 217.267 89.3601 217.267 96.2401C217.267 113.04 203.827 122.48 187.347 122.48ZM176.787 92.8801C176.787 99.2801 181.427 103.76 187.027 103.76C193.107 103.76 197.427 99.2801 197.427 92.8801C197.427 86.6401 193.107 81.8401 187.027 81.8401C181.427 81.8401 176.787 86.6401 176.787 92.8801ZM197.427 151.92C197.427 132.56 211.987 121.04 233.747 121.04C253.747 121.04 268.147 132.4 268.147 151.92C268.147 169.2 255.347 182.8 233.747 182.8C212.147 182.8 197.427 169.2 197.427 151.92ZM221.107 151.6C221.107 157.68 226.067 162.16 233.267 162.16C240.787 162.16 245.747 157.68 245.747 151.6C245.747 144.72 240.947 140.88 233.267 140.88C226.067 140.88 221.107 144.4 221.107 151.6ZM225.907 62.9601C225.587 54.1601 227.027 47.4401 236.467 46.8001C242.867 46.3201 248.947 49.2001 249.267 64.0801C249.427 68.2401 249.427 71.2801 249.587 73.8401C252.947 73.5201 256.947 73.5201 260.307 73.5201C260.307 70.3201 260.147 66.9601 260.147 63.1201C259.987 51.6001 262.707 45.6801 270.867 45.3601C277.427 45.0401 283.027 49.3601 283.027 64.2401C283.027 79.1201 283.667 82.0001 282.707 106C282.227 116.24 278.867 122.64 270.867 122.64C263.667 122.64 259.027 116.72 259.667 106C259.987 102.32 260.147 98.9601 260.307 95.1201C257.107 95.2801 253.267 95.4401 249.747 95.4401C249.747 97.3601 249.747 99.4401 249.587 101.68C249.267 111.92 245.107 118.48 237.107 118.32C229.907 118.16 226.067 112.4 226.227 101.68C226.547 73.6801 226.707 90.9601 225.907 62.9601ZM322.854 159.44C308.454 158.48 304.454 155.12 304.294 145.04C303.814 120.08 303.014 100.72 303.494 70.3201C303.654 63.2801 307.654 60.0801 316.294 59.6001C326.374 58.9601 359.334 58.6401 369.574 58.9601C378.054 59.2801 381.254 62.8001 381.254 70.0001C381.254 75.1201 378.534 79.9201 368.774 79.6001C359.174 79.2801 337.094 79.4401 331.814 79.7601C329.094 79.7601 328.454 80.5601 328.454 82.9601C327.974 100.56 328.134 120.56 328.614 131.76C328.774 136.24 329.574 136.72 334.374 137.04C341.894 137.52 357.254 137.68 371.174 136.56C381.414 135.76 385.414 140.24 385.894 147.28C386.374 154.48 381.734 158 373.094 158.64C356.774 159.92 338.694 160.56 322.854 159.44ZM394.054 65.2001C393.734 56.4001 396.294 50.6401 406.694 50.6401C413.894 50.6401 419.654 54.6401 419.974 69.5201C420.134 78.0001 419.654 86.3201 419.814 94.8001C423.654 94.8001 428.134 94.9601 431.814 95.1201C436.774 95.4401 441.254 100.4 441.254 105.84C441.254 111.44 438.854 116.24 433.094 118.16C429.734 119.28 424.294 119.6 420.134 119.76C420.134 134 420.134 150.48 419.654 160.24C419.174 170.48 414.854 176.88 406.854 176.88C398.854 176.88 394.054 170.96 394.854 160.24C395.494 150.96 396.134 106.8 395.014 79.9201C394.854 75.6001 394.214 69.2001 394.054 65.2001ZM448.762 117.84C443.322 115.28 440.601 109.04 446.362 98.6401C455.322 82.4801 470.362 65.0401 482.362 52.5601C487.322 47.4401 495.482 44.5601 501.562 49.3601C506.682 53.3601 507.962 60.5601 501.722 66.8001L496.442 72.0801C504.442 80.7201 513.882 87.7601 523.801 95.1201C532.442 101.52 531.322 109.04 528.122 112.88C524.442 117.68 518.362 119.12 507.802 111.76C500.122 106.8 489.882 99.2801 480.762 90.3201C475.642 96.5601 471.162 102.64 467.642 108.4C461.082 118.8 454.842 120.72 448.762 117.84ZM483.482 179.92C479.002 176.4 477.402 170.8 483.962 161.84C489.402 154.32 504.442 138.48 516.442 125.68C521.242 120.56 528.122 119.92 533.562 125.36C545.722 137.36 560.442 153.04 566.682 161.84C571.962 169.36 571.482 175.6 566.522 179.6C561.242 183.76 554.202 182.32 548.922 175.92C541.402 166.96 534.522 159.28 528.442 152.4C525.722 149.36 524.602 149.36 522.042 152.56C516.282 159.76 508.442 168.72 501.242 176.24C495.482 182.16 487.802 183.28 483.482 179.92ZM518.042 78.1601C518.522 72.7201 521.882 68.0801 528.602 68.4001C534.842 68.7201 542.522 68.4001 549.882 67.9201L549.402 58.6401C548.922 49.8401 553.082 45.0401 560.922 45.0401C568.122 45.0401 573.402 49.0401 574.042 63.9201C574.682 80.8801 574.522 100.56 574.042 114.64C573.722 124.88 569.562 131.28 561.562 131.28C553.562 131.28 549.562 126.64 550.362 115.92C550.682 108.72 550.842 99.6001 550.682 89.8401C543.002 90.4801 534.042 90.4801 527.322 89.5201C521.242 88.7201 517.402 84.4001 518.042 78.1601ZM598.189 155.76C591.469 153.2 589.709 147.92 593.389 135.6C599.949 113.68 616.109 86.1601 629.709 64.2401C632.909 58.9601 641.069 54.1601 648.429 58.1601C654.189 61.2001 656.589 68.2401 652.269 75.7601L645.069 88.0801C653.389 104.4 664.589 119.12 674.829 131.28C683.149 141.2 682.189 148.56 678.029 152.56C673.069 157.2 665.869 156.4 656.589 147.44C649.229 140.24 638.029 125.68 631.149 112.4C625.069 123.44 619.469 134.16 615.309 144.4C610.349 156.4 604.749 158.16 598.189 155.76ZM697.069 160.24C698.029 128.88 698.029 92.4001 697.389 64.2401C697.229 55.4401 701.869 50.6401 709.709 50.6401C716.909 50.6401 722.029 54.6401 722.509 69.5201C723.149 87.6001 722.829 136.24 721.709 160.24C721.229 170.48 717.229 176.88 709.229 176.88C701.229 176.88 696.749 170.96 697.069 160.24Z" fill="black"/>
</mask>
<g mask="url(#mask0_400_56)">
<path d="M87.1993 124.4L92.1732 124.91L92.1768 124.875L92.18 124.839L87.1993 124.4ZM97.7593 114.8L98.009 109.806L97.9437 109.803L97.8783 109.801L97.7593 114.8ZM108.959 114.96V119.96H113.959V114.96H108.959ZM108.799 98.0001H113.799V93.0001H108.799V98.0001ZM98.5593 98.1601L98.6783 103.159L98.7503 103.157L98.8221 103.153L98.5593 98.1601ZM87.9993 88.5601L92.98 88.1206L92.9768 88.0853L92.9732 88.0499L87.9993 88.5601ZM96.7993 76.4001L96.3018 71.4249L96.2888 71.4262L96.2759 71.4276L96.7993 76.4001ZM108.319 75.6001L108.486 80.5973L113.528 80.4293L113.315 75.389L108.319 75.6001ZM107.839 64.2401L112.835 64.029L112.833 63.9984L112.832 63.9678L107.839 64.2401ZM132.959 69.5201L127.973 69.8954L127.974 69.9062L127.975 69.9171L132.959 69.5201ZM108.319 160.24L113.317 160.389V160.367L113.318 160.345L108.319 160.24ZM108.799 137.36L113.798 137.465L113.902 132.512L108.95 132.362L108.799 137.36ZM95.9993 136.56L95.4759 141.533L95.5006 141.535L95.5253 141.537L95.9993 136.56ZM45.4393 144.72V139.72C25.4107 139.72 10.2793 125.414 10.2793 106H5.2793H0.279297C0.279297 131.386 20.3479 149.72 45.4393 149.72V144.72ZM5.2793 106H10.2793C10.2793 86.057 26.3977 72.1201 47.1993 72.1201V67.1201V62.1201C21.9209 62.1201 0.279297 79.5432 0.279297 106H5.2793ZM47.1993 67.1201V72.1201C66.8694 72.1201 81.7193 85.7492 81.7193 106H86.7193H91.7193C91.7193 79.851 72.0092 62.1201 47.1993 62.1201V67.1201ZM86.7193 106H81.7193C81.7193 116.832 77.9199 125.115 71.7694 130.726C65.5651 136.387 56.5309 139.72 45.4393 139.72V144.72V149.72C58.5077 149.72 70.1135 145.773 78.5092 138.114C86.9588 130.405 91.7193 119.328 91.7193 106H86.7193ZM31.0393 105.52H26.0393C26.0393 111.933 28.292 117.321 32.2077 121.098C36.0803 124.835 41.251 126.68 46.5593 126.68V121.68V116.68C43.5476 116.68 40.9583 115.645 39.1509 113.902C37.3866 112.199 36.0393 109.507 36.0393 105.52H31.0393ZM46.5593 121.68V126.68C51.9819 126.68 57.2333 124.864 61.1657 121.122C65.1443 117.337 67.3993 111.935 67.3993 105.52H62.3993H57.3993C57.3993 109.505 56.0543 112.183 54.2729 113.878C52.4454 115.616 49.7767 116.68 46.5593 116.68V121.68ZM62.3993 105.52H67.3993C67.3993 99.1677 65.1334 93.7799 61.1788 89.9902C57.2649 86.2393 52.0183 84.3601 46.5593 84.3601V89.3601V94.3601C49.7403 94.3601 52.4137 95.4409 54.2598 97.21C56.0652 98.9403 57.3993 101.632 57.3993 105.52H62.3993ZM46.5593 89.3601V84.3601C35.7045 84.3601 26.0393 92.9325 26.0393 105.52H31.0393H36.0393C36.0393 98.5877 41.0941 94.3601 46.5593 94.3601V89.3601ZM87.1993 124.4L92.18 124.839C92.3438 122.982 92.9598 121.751 93.6748 121.036C94.3118 120.399 95.442 119.746 97.6403 119.799L97.7593 114.8L97.8783 109.801C93.3566 109.694 89.4468 111.121 86.6038 113.964C83.8388 116.729 82.5348 120.378 82.2187 123.961L87.1993 124.4ZM97.7593 114.8L97.5096 119.794C100.86 119.961 104.678 119.96 108.959 119.96V114.96V109.96C104.6 109.96 101.058 109.959 98.009 109.806L97.7593 114.8ZM108.959 114.96H113.959C113.959 112.039 113.918 109.164 113.879 106.349C113.838 103.523 113.799 100.758 113.799 98.0001H108.799H103.799C103.799 100.842 103.84 103.677 103.88 106.491C103.92 109.316 103.959 112.121 103.959 114.96H108.959ZM108.799 98.0001V93.0001C104.834 93.0001 101.493 92.9987 98.2965 93.167L98.5593 98.1601L98.8221 103.153C101.705 103.001 104.764 103 108.799 103V98.0001ZM98.5593 98.1601L98.4403 93.1615C96.242 93.2139 95.1118 92.5615 94.4748 91.9246C93.7598 91.2096 93.1438 89.9781 92.98 88.1206L87.9993 88.5601L83.0187 88.9996C83.3348 92.5821 84.6388 96.2306 87.4038 98.9956C90.2468 101.839 94.1566 103.266 98.6783 103.159L98.5593 98.1601ZM87.9993 88.5601L92.9732 88.0499C92.756 85.9321 93.2474 84.2916 93.9808 83.2398C94.6644 82.2593 95.7139 81.542 97.3227 81.3726L96.7993 76.4001L96.2759 71.4276C91.8047 71.8982 88.1342 74.1409 85.7778 77.5204C83.4712 80.8286 82.6026 84.9481 83.0254 89.0702L87.9993 88.5601ZM96.7993 76.4001L97.2968 81.3753C100.445 81.0605 103.842 80.7521 108.486 80.5973L108.319 75.6001L108.152 70.6029C103.196 70.7681 99.5537 71.0997 96.3018 71.4249L96.7993 76.4001ZM108.319 75.6001L113.315 75.389L112.835 64.029L107.839 64.2401L102.843 64.4512L103.323 75.8112L108.319 75.6001ZM107.839 64.2401L112.832 63.9678C112.623 60.1437 113.358 58.1658 114.097 57.2216C114.682 56.4731 115.845 55.6401 118.719 55.6401V50.6401V45.6401C113.753 45.6401 109.236 47.2071 106.221 51.0586C103.36 54.7144 102.575 59.5364 102.846 64.5124L107.839 64.2401ZM118.719 50.6401V55.6401C121.337 55.6401 123.06 56.3218 124.368 57.8056C125.855 59.4939 127.45 62.9473 127.973 69.8954L132.959 69.5201L137.945 69.1448C137.348 61.2129 135.423 55.2263 131.87 51.1946C128.138 46.9584 123.301 45.6401 118.719 45.6401V50.6401ZM132.959 69.5201L127.975 69.9171C129.39 87.6813 129.081 136.074 127.964 160.007L132.959 160.24L137.954 160.474C139.077 136.407 139.408 87.5189 137.943 69.1231L132.959 69.5201ZM132.959 160.24L127.964 160.006C127.747 164.644 126.746 167.711 125.472 169.491C124.386 171.01 122.926 171.88 120.479 171.88V176.88V181.88C126.032 181.88 130.572 179.55 133.606 175.309C136.452 171.329 137.691 166.076 137.954 160.474L132.959 160.24ZM120.479 176.88V171.88C117.844 171.88 116.316 170.985 115.303 169.612C114.134 168.027 113.175 165.131 113.317 160.389L108.319 160.24L103.321 160.091C103.143 166.069 104.264 171.493 107.255 175.548C110.402 179.815 115.114 181.88 120.479 181.88V176.88ZM108.319 160.24L113.318 160.345L113.798 137.465L108.799 137.36L103.8 137.255L103.32 160.135L108.319 160.24ZM108.799 137.36L108.95 132.362C103.799 132.206 99.7492 131.895 96.4733 131.583L95.9993 136.56L95.5253 141.537C98.9694 141.865 103.239 142.194 108.648 142.358L108.799 137.36ZM95.9993 136.56L96.5227 131.587C94.9139 131.418 93.8644 130.701 93.1808 129.72C92.4474 128.668 91.956 127.028 92.1732 124.91L87.1993 124.4L82.2254 123.89C81.8026 128.012 82.6712 132.132 84.9778 135.44C87.3342 138.819 91.0047 141.062 95.4759 141.533L95.9993 136.56ZM163.667 79.7601L167.069 83.4241L177.415 73.8165L163.328 74.7715L163.667 79.7601ZM149.747 71.1201L154.74 70.864L154.737 70.8003L154.732 70.7366L149.747 71.1201ZM160.467 60.7201L160.155 55.7298L160.099 55.7333L160.043 55.7381L160.467 60.7201ZM175.827 59.7601L176.138 64.7504L180.827 64.4574V59.7601H175.827ZM175.827 57.8401L170.83 57.6515L170.827 57.7458V57.8401H175.827ZM197.587 59.4401H192.587V64.4401H197.587V59.4401ZM210.227 59.7601L210.526 54.7691L210.485 54.7666L210.444 54.7648L210.227 59.7601ZM221.107 69.6801L216.115 69.3948L216.114 69.4025V69.4102L221.107 69.6801ZM209.907 78.8001L209.669 73.8058L197.239 74.3977L206.623 82.5705L209.907 78.8001ZM225.907 62.9601L230.904 62.8173V62.7978L230.903 62.7784L225.907 62.9601ZM236.467 46.8001L236.805 51.7886L236.823 51.7874L236.84 51.7861L236.467 46.8001ZM249.267 64.0801L244.268 64.1876L244.269 64.2299L244.27 64.2723L249.267 64.0801ZM249.587 73.8401L244.596 74.152L244.918 79.3073L250.061 78.8176L249.587 73.8401ZM260.307 73.5201V78.5201H265.307V73.5201H260.307ZM260.147 63.1201H265.147V63.0854L265.146 63.0507L260.147 63.1201ZM270.867 45.3601L271.062 50.3563L271.086 50.3553L271.11 50.3542L270.867 45.3601ZM282.707 106L287.701 106.234L287.702 106.217L287.703 106.2L282.707 106ZM259.667 106L254.685 105.567L254.679 105.634L254.675 105.702L259.667 106ZM260.307 95.1201L265.302 95.3282L265.53 89.8527L260.057 90.1263L260.307 95.1201ZM249.747 95.4401V90.4401H244.747V95.4401H249.747ZM249.587 101.68L244.599 101.324L244.592 101.424L244.589 101.524L249.587 101.68ZM237.107 118.32L236.995 123.319H237.007L237.107 118.32ZM226.227 101.68L231.226 101.755V101.746V101.737L226.227 101.68ZM187.347 122.48V117.48C172.91 117.48 161.787 108.036 161.787 95.9201H156.787H151.787C151.787 115.164 169.143 127.48 187.347 127.48V122.48ZM156.787 95.9201H161.787C161.787 90.9914 163.664 86.5856 167.069 83.4241L163.667 79.7601L160.264 76.0961C154.709 81.2546 151.787 88.3688 151.787 95.9201H156.787ZM163.667 79.7601L163.328 74.7715C159.015 75.064 156.919 74.4139 156 73.8203C155.424 73.448 154.84 72.823 154.74 70.864L149.747 71.1201L144.753 71.3762C144.973 75.6571 146.629 79.6722 150.573 82.2199C154.174 84.5463 158.878 85.0962 164.005 84.7486L163.667 79.7601ZM149.747 71.1201L154.732 70.7366C154.577 68.7224 155.099 67.882 155.582 67.415C156.228 66.7904 157.723 65.9717 160.891 65.7021L160.467 60.7201L160.043 55.7381C155.69 56.1085 151.585 57.3698 148.631 60.2252C145.514 63.2382 144.436 67.2778 144.761 71.5036L149.747 71.1201ZM160.467 60.7201L160.778 65.7104L176.138 64.7504L175.827 59.7601L175.515 54.7698L160.155 55.7298L160.467 60.7201ZM175.827 59.7601H180.827V57.8401H175.827H170.827V59.7601H175.827ZM175.827 57.8401L180.823 58.0286C180.981 53.8516 181.548 51.7295 182.308 50.6405C182.727 50.0396 183.642 49.0801 187.187 49.0801V44.0801V39.0801C181.611 39.0801 177.006 40.7606 174.105 44.9197C171.545 48.5907 170.992 53.3486 170.83 57.6515L175.827 57.8401ZM187.187 44.0801V49.0801C189.796 49.0801 190.628 49.7193 191.059 50.2592C191.723 51.0911 192.587 53.1509 192.587 58.0001H197.587H202.587C202.587 52.4493 201.69 47.5491 198.874 44.021C195.825 40.2009 191.457 39.0801 187.187 39.0801V44.0801ZM197.587 58.0001H192.587V59.4401H197.587H202.587V58.0001H197.587ZM197.587 59.4401V64.4401C202.117 64.4401 206.351 64.5963 210.009 64.7554L210.227 59.7601L210.444 54.7648C206.742 54.6039 202.336 54.4401 197.587 54.4401V59.4401ZM210.227 59.7601L209.927 64.7511C213.261 64.9512 214.71 65.8078 215.292 66.376C215.761 66.8347 216.215 67.6356 216.115 69.3948L221.107 69.6801L226.098 69.9653C226.318 66.1246 225.332 62.2055 222.281 59.2242C219.343 56.3524 215.192 55.049 210.526 54.7691L210.227 59.7601ZM221.107 69.6801L216.114 69.4102C216.021 71.132 215.458 71.908 214.828 72.4C214.023 73.0288 212.456 73.673 209.669 73.8058L209.907 78.8001L210.144 83.7944C214.077 83.6071 217.95 82.6514 220.985 80.2802C224.195 77.7722 225.872 74.1482 226.099 69.95L221.107 69.6801ZM209.907 78.8001L206.623 82.5705C210.3 85.7738 212.267 90.5304 212.267 96.2401H217.267H222.267C222.267 88.1898 219.433 80.4664 213.19 75.0297L209.907 78.8001ZM217.267 96.2401H212.267C212.267 103.175 209.553 108.308 205.309 111.799C200.961 115.377 194.679 117.48 187.347 117.48V122.48V127.48C196.494 127.48 205.172 124.863 211.664 119.521C218.26 114.092 222.267 106.105 222.267 96.2401H217.267ZM176.787 92.8801H171.787C171.787 101.891 178.517 108.76 187.027 108.76V103.76V98.7601C184.336 98.7601 181.787 96.6695 181.787 92.8801H176.787ZM187.027 103.76V108.76C191.342 108.76 195.274 107.145 198.116 104.18C200.945 101.228 202.427 97.2223 202.427 92.8801H197.427H192.427C192.427 94.9379 191.748 96.3724 190.897 97.2606C190.059 98.135 188.791 98.7601 187.027 98.7601V103.76ZM197.427 92.8801H202.427C202.427 84.2303 196.207 76.8401 187.027 76.8401V81.8401V86.8401C190.006 86.8401 192.427 89.0499 192.427 92.8801H197.427ZM187.027 81.8401V76.8401C178.375 76.8401 171.787 84.1778 171.787 92.8801H176.787H181.787C181.787 89.1024 184.478 86.8401 187.027 86.8401V81.8401ZM197.427 151.92H202.427C202.427 143.6 205.499 137.335 210.627 133.061C215.861 128.7 223.701 126.04 233.747 126.04V121.04V116.04C222.032 116.04 211.712 119.14 204.226 125.379C196.634 131.705 192.427 140.88 192.427 151.92H197.427ZM233.747 121.04V126.04C242.835 126.04 250.181 128.618 255.174 132.94C260.083 137.19 263.147 143.483 263.147 151.92H268.147H273.147C273.147 140.837 269.01 131.69 261.719 125.38C254.512 119.142 244.658 116.04 233.747 116.04V121.04ZM268.147 151.92H263.147C263.147 159.287 260.441 165.655 255.617 170.201C250.787 174.753 243.482 177.8 233.747 177.8V182.8V187.8C245.611 187.8 255.506 184.047 262.476 177.479C269.452 170.905 273.147 161.833 273.147 151.92H268.147ZM233.747 182.8V177.8C214.24 177.8 202.427 165.815 202.427 151.92H197.427H192.427C192.427 172.585 210.053 187.8 233.747 187.8V182.8ZM221.107 151.6H216.107C216.107 161.03 223.933 167.16 233.267 167.16V162.16V157.16C228.2 157.16 226.107 154.33 226.107 151.6H221.107ZM233.267 162.16V167.16C238.006 167.16 242.351 165.742 245.592 162.946C248.879 160.112 250.747 156.087 250.747 151.6H245.747H240.747C240.747 153.193 240.134 154.448 239.061 155.374C237.942 156.338 236.047 157.16 233.267 157.16V162.16ZM245.747 151.6H250.747C250.747 146.911 249.058 142.743 245.608 139.836C242.277 137.03 237.878 135.88 233.267 135.88V140.88V145.88C236.335 145.88 238.176 146.65 239.165 147.484C240.035 148.217 240.747 149.409 240.747 151.6H245.747ZM233.267 140.88V135.88C228.925 135.88 224.608 136.935 221.289 139.696C217.831 142.573 216.107 146.76 216.107 151.6H221.107H226.107C226.107 149.24 226.862 148.067 227.684 147.384C228.645 146.585 230.408 145.88 233.267 145.88V140.88ZM225.907 62.9601L230.903 62.7784C230.746 58.454 231.113 55.746 231.954 54.1424C232.491 53.1194 233.454 52.0158 236.805 51.7886L236.467 46.8001L236.128 41.8115C230.039 42.2244 225.562 44.8008 223.099 49.4977C220.94 53.6142 220.747 58.6662 220.91 63.1418L225.907 62.9601ZM236.467 46.8001L236.84 51.7861C239.211 51.6083 240.562 52.0994 241.497 53.0979C242.619 54.2962 244.118 57.2425 244.268 64.1876L249.267 64.0801L254.265 63.9726C254.095 56.0377 252.394 50.104 248.796 46.2623C245.011 42.2208 240.122 41.5119 236.093 41.8141L236.467 46.8001ZM249.267 64.0801L244.27 64.2723C244.418 68.123 244.434 71.5624 244.596 74.152L249.587 73.8401L254.577 73.5282C254.419 70.9978 254.435 68.3572 254.263 63.8879L249.267 64.0801ZM249.587 73.8401L250.061 78.8176C253.138 78.5245 256.886 78.5201 260.307 78.5201V73.5201V68.5201C257.007 68.5201 252.755 68.5157 249.112 68.8626L249.587 73.8401ZM260.307 73.5201H265.307C265.307 71.85 265.265 70.1466 265.225 68.4438C265.185 66.7226 265.147 64.9754 265.147 63.1201H260.147H255.147C255.147 65.1048 255.188 66.9576 255.228 68.6763C255.268 70.4136 255.307 71.9902 255.307 73.5201H260.307ZM260.147 63.1201L265.146 63.0507C265.069 57.4783 265.744 54.2548 266.735 52.5081C267.421 51.2993 268.407 50.4604 271.062 50.3563L270.867 45.3601L270.671 40.3639C265.166 40.5798 260.712 42.8609 258.038 47.5721C255.669 51.7454 255.064 57.2419 255.147 63.1895L260.147 63.1201ZM270.867 45.3601L271.11 50.3542C273.109 50.2566 274.415 50.8054 275.436 52.1394C276.687 53.7728 278.027 57.2694 278.027 64.2401H283.027H288.027C288.027 56.3308 286.566 50.2274 283.377 46.0608C279.958 41.5948 275.184 40.1436 270.623 40.366L270.867 45.3601ZM283.027 64.2401H278.027C278.027 79.3575 278.666 81.9249 277.711 105.8L282.707 106L287.703 106.2C288.667 82.0753 288.027 78.8827 288.027 64.2401H283.027ZM282.707 106L277.712 105.766C277.488 110.542 276.602 113.635 275.433 115.407C274.501 116.819 273.265 117.64 270.867 117.64V122.64V127.64C276.468 127.64 280.912 125.261 283.78 120.913C286.411 116.925 287.445 111.698 287.701 106.234L282.707 106ZM270.867 122.64V117.64C268.792 117.64 267.405 116.871 266.419 115.467C265.304 113.879 264.379 110.972 264.658 106.298L259.667 106L254.675 105.702C254.314 111.748 255.389 117.161 258.234 121.213C261.208 125.449 265.741 127.64 270.867 127.64V122.64ZM259.667 106L264.648 106.433C264.978 102.634 265.142 99.18 265.302 95.3282L260.307 95.1201L255.311 94.9119C255.151 98.7402 254.995 102.006 254.685 105.567L259.667 106ZM260.307 95.1201L260.057 90.1263C256.875 90.2854 253.137 90.4401 249.747 90.4401V95.4401V100.44C253.396 100.44 257.338 100.275 260.556 100.114L260.307 95.1201ZM249.747 95.4401H244.747C244.747 97.376 244.745 99.2865 244.599 101.324L249.587 101.68L254.574 102.036C254.748 99.5937 254.747 97.3442 254.747 95.4401H249.747ZM249.587 101.68L244.589 101.524C244.446 106.114 243.445 109.2 242.164 110.986C241.063 112.52 239.595 113.369 237.206 113.321L237.107 118.32L237.007 123.319C242.618 123.431 247.23 121.08 250.289 116.814C253.168 112.8 254.408 107.486 254.584 101.836L249.587 101.68ZM237.107 118.32L237.218 113.321C235.137 113.275 233.956 112.539 233.085 111.214C232.024 109.599 231.153 106.632 231.226 101.755L226.227 101.68L221.227 101.605C221.14 107.448 222.109 112.721 224.728 116.706C227.537 120.981 231.876 123.205 236.995 123.319L237.107 118.32ZM226.227 101.68L231.226 101.737C231.547 73.6782 231.707 90.8911 230.904 62.8173L225.907 62.9601L220.909 63.1029C221.706 91.0291 221.546 73.682 221.227 101.623L226.227 101.68ZM322.854 159.44L323.207 154.452H323.197L323.187 154.451L322.854 159.44ZM304.294 145.04L309.293 144.961V144.952V144.944L304.294 145.04ZM303.494 70.3201L298.495 70.2065V70.2238V70.2412L303.494 70.3201ZM316.294 59.6001L316.571 64.5924L316.591 64.5913L316.611 64.59L316.294 59.6001ZM369.574 58.9601L369.763 53.9637L369.746 53.963L369.73 53.9625L369.574 58.9601ZM368.774 79.6001L368.607 84.5973L368.61 84.5974L368.774 79.6001ZM331.814 79.7601V84.7601H331.965L332.116 84.7509L331.814 79.7601ZM328.454 82.9601L333.452 83.0964L333.454 83.0283V82.9601H328.454ZM328.614 131.76L333.611 131.582L333.61 131.564L333.609 131.546L328.614 131.76ZM334.374 137.04L334.041 142.029L334.055 142.03L334.374 137.04ZM371.174 136.56L370.785 131.575L370.773 131.576L371.174 136.56ZM385.894 147.28L390.883 146.947L390.882 146.94L385.894 147.28ZM373.094 158.64L372.725 153.654H372.714L372.703 153.655L373.094 158.64ZM394.054 65.2001L389.057 65.3818L389.058 65.3909V65.3999L394.054 65.2001ZM419.974 69.5201L424.973 69.4258V69.4126L419.974 69.5201ZM419.814 94.8001L414.815 94.8944L414.907 99.8001H419.814V94.8001ZM431.814 95.1201L432.136 90.1305L432.084 90.1271L432.031 90.1248L431.814 95.1201ZM420.134 119.76L419.942 114.764L415.134 114.949V119.76H420.134ZM419.654 160.24L414.66 159.994L414.659 160.006L419.654 160.24ZM394.854 160.24L399.84 160.612L399.841 160.598L399.842 160.584L394.854 160.24ZM395.014 79.9201L390.017 80.1051L390.018 80.1167V80.1282L395.014 79.9201ZM322.854 159.44L323.187 154.451C316.006 153.972 312.829 152.914 311.327 151.731C310.286 150.912 309.365 149.47 309.293 144.961L304.294 145.04L299.295 145.119C299.383 150.69 300.542 155.968 305.141 159.589C309.279 162.846 315.302 163.948 322.521 164.429L322.854 159.44ZM304.294 145.04L309.293 144.944C308.811 119.896 308.015 100.683 308.493 70.399L303.494 70.3201L298.495 70.2412C298.013 100.757 298.817 120.264 299.295 145.136L304.294 145.04ZM303.494 70.3201L308.493 70.4337C308.551 67.883 309.243 66.8982 309.904 66.3502C310.791 65.6152 312.67 64.8091 316.571 64.5924L316.294 59.6001L316.017 54.6078C311.278 54.8711 306.837 55.905 303.524 58.65C299.985 61.5819 298.597 65.7172 298.495 70.2065L303.494 70.3201ZM316.294 59.6001L316.611 64.59C326.502 63.962 359.301 63.6415 369.418 63.9577L369.574 58.9601L369.73 53.9625C359.367 53.6387 326.246 53.9582 315.977 54.6101L316.294 59.6001ZM369.574 58.9601L369.385 63.9565C373.105 64.0969 374.532 64.9209 375.097 65.4738C375.591 65.957 376.254 67.0467 376.254 70.0001H381.254H386.254C386.254 65.7535 385.317 61.4832 382.091 58.3263C378.936 55.2393 374.523 54.1433 369.763 53.9637L369.574 58.9601ZM381.254 70.0001H376.254C376.254 71.7337 375.801 72.6741 375.235 73.2103C374.655 73.76 373.057 74.7378 368.938 74.6028L368.774 79.6001L368.61 84.5974C374.251 84.7824 378.893 83.5202 382.113 80.4699C385.347 77.4061 386.254 73.3865 386.254 70.0001H381.254ZM368.774 79.6001L368.941 74.6029C359.244 74.2796 336.997 74.4368 331.512 74.7693L331.814 79.7601L332.116 84.7509C337.191 84.4434 359.104 84.2805 368.607 84.5973L368.774 79.6001ZM331.814 79.7601V74.7601C330.341 74.7601 327.62 74.883 325.578 76.9246C323.519 78.9837 323.454 81.6997 323.454 82.9601H328.454H333.454C333.454 82.5291 333.489 82.4933 333.449 82.6534C333.394 82.8732 333.202 83.4429 332.65 83.9956C332.102 84.5433 331.551 84.7234 331.373 84.7684C331.246 84.8009 331.331 84.7601 331.814 84.7601V79.7601ZM328.454 82.9601L323.456 82.8238C322.973 100.519 323.133 120.637 323.619 131.974L328.614 131.76L333.609 131.546C333.135 120.483 332.975 100.601 333.452 83.0964L328.454 82.9601ZM328.614 131.76L323.617 131.938C323.659 133.12 323.75 134.436 324.06 135.659C324.396 136.985 325.063 138.495 326.455 139.717C327.775 140.876 329.275 141.355 330.432 141.601C331.57 141.843 332.84 141.949 334.041 142.029L334.374 137.04L334.707 132.051C334.135 132.013 333.677 131.976 333.297 131.934C332.913 131.893 332.667 131.852 332.511 131.819C332.163 131.745 332.553 131.764 333.053 132.203C333.31 132.428 333.498 132.679 333.621 132.903C333.734 133.108 333.761 133.234 333.753 133.201C333.743 133.163 333.714 133.026 333.683 132.737C333.653 132.451 333.629 132.078 333.611 131.582L328.614 131.76ZM334.374 137.04L334.055 142.03C341.801 142.524 357.402 142.684 371.575 141.544L371.174 136.56L370.773 131.576C357.106 132.676 341.987 132.516 334.693 132.05L334.374 137.04ZM371.174 136.56L371.563 141.545C376.007 141.198 378.084 142.084 379.042 142.862C379.936 143.587 380.722 144.924 380.906 147.62L385.894 147.28L390.882 146.94C390.586 142.596 389.132 138.173 385.346 135.098C381.624 132.076 376.581 131.122 370.785 131.575L371.174 136.56ZM385.894 147.28L380.905 147.613C381.062 149.971 380.412 150.982 379.669 151.616C378.658 152.479 376.583 153.368 372.725 153.654L373.094 158.64L373.463 163.626C378.245 163.272 382.81 162.081 386.159 159.224C389.776 156.138 391.206 151.789 390.883 146.947L385.894 147.28ZM373.094 158.64L372.703 153.655C356.502 154.926 338.697 155.548 323.207 154.452L322.854 159.44L322.501 164.428C338.691 165.572 357.046 164.914 373.485 163.625L373.094 158.64ZM394.054 65.2001L399.051 65.0184C398.901 60.9137 399.518 58.7377 400.358 57.615C400.969 56.7986 402.387 55.6401 406.694 55.6401V50.6401V45.6401C400.601 45.6401 395.539 47.3616 392.35 51.6251C389.39 55.5825 388.887 60.6865 389.057 65.3818L394.054 65.2001ZM406.694 50.6401V55.6401C409.333 55.6401 410.931 56.3292 412.071 57.6984C413.399 59.2949 414.826 62.6702 414.975 69.6276L419.974 69.5201L424.973 69.4126C424.802 61.49 423.189 55.4253 419.757 51.3018C416.137 46.951 411.255 45.6401 406.694 45.6401V50.6401ZM419.974 69.5201L414.975 69.6144C415.053 73.7441 414.975 77.8497 414.895 82.0649C414.815 86.2497 414.733 90.5441 414.815 94.8944L419.814 94.8001L424.813 94.7058C424.735 90.5761 424.813 86.4705 424.893 82.2553C424.973 78.0705 425.055 73.7761 424.973 69.4258L419.974 69.5201ZM419.814 94.8001V99.8001C423.541 99.8001 427.932 99.956 431.597 100.115L431.814 95.1201L432.031 90.1248C428.336 89.9642 423.767 89.8001 419.814 89.8001V94.8001ZM431.814 95.1201L431.492 100.11C433.577 100.244 436.254 102.785 436.254 105.84H441.254H446.254C446.254 98.0156 439.971 90.636 432.136 90.1305L431.814 95.1201ZM441.254 105.84H436.254C436.254 107.953 435.799 109.586 435.078 110.755C434.401 111.853 433.331 112.811 431.513 113.417L433.094 118.16L434.675 122.903C438.617 121.589 441.627 119.187 443.59 116.005C445.509 112.894 446.254 109.327 446.254 105.84H441.254ZM433.094 118.16L431.513 113.417C428.958 114.268 424.278 114.597 419.942 114.764L420.134 119.76L420.326 124.756C424.31 124.603 430.51 124.292 434.675 122.903L433.094 118.16ZM420.134 119.76H415.134C415.134 134.061 415.132 150.388 414.66 159.994L419.654 160.24L424.648 160.486C425.136 150.572 425.134 133.939 425.134 119.76H420.134ZM419.654 160.24L414.659 160.006C414.445 164.575 413.39 167.629 412.061 169.418C410.894 170.988 409.323 171.88 406.854 171.88V176.88V181.88C412.385 181.88 416.974 179.572 420.087 175.382C423.038 171.411 424.383 166.145 424.649 160.474L419.654 160.24ZM406.854 176.88V171.88C404.186 171.88 402.582 170.96 401.564 169.594C400.425 168.064 399.494 165.25 399.84 160.612L394.854 160.24L389.868 159.868C389.414 165.95 390.483 171.456 393.544 175.566C396.726 179.84 401.522 181.88 406.854 181.88V176.88ZM394.854 160.24L399.842 160.584C400.498 151.076 401.135 106.725 400.01 79.7119L395.014 79.9201L390.018 80.1282C391.133 106.875 390.49 150.844 389.866 159.896L394.854 160.24ZM395.014 79.9201L400.011 79.735C399.926 77.4598 399.718 74.6776 399.52 72.0624C399.317 69.3837 399.126 66.8897 399.05 65.0003L394.054 65.2001L389.058 65.3999C389.142 67.5104 389.351 70.2164 389.548 72.8178C389.75 75.4826 389.942 78.0604 390.017 80.1051L395.014 79.9201ZM448.762 117.84L450.902 113.321L450.89 113.316L448.762 117.84ZM446.362 98.6401L441.989 96.2156L441.988 96.2176L446.362 98.6401ZM482.362 52.5601L478.77 49.0811L478.764 49.0878L478.757 49.0945L482.362 52.5601ZM501.562 49.3601L498.463 53.2845L498.473 53.2924L498.483 53.3002L501.562 49.3601ZM496.442 72.0801L492.906 68.5446L489.504 71.9467L492.773 75.4771L496.442 72.0801ZM523.801 95.1201L520.822 99.1356L520.825 99.1379L523.801 95.1201ZM528.122 112.88L524.28 109.679L524.215 109.757L524.153 109.838L528.122 112.88ZM507.802 111.76L510.66 107.658L510.588 107.608L510.514 107.56L507.802 111.76ZM480.762 90.3201L484.266 86.7534L480.365 82.9211L476.896 87.1485L480.762 90.3201ZM467.642 108.4L471.87 111.068L471.889 111.038L471.908 111.007L467.642 108.4ZM483.482 179.92L480.392 183.852L480.402 183.859L480.412 183.867L483.482 179.92ZM483.962 161.84L487.996 164.794L488.004 164.782L488.013 164.771L483.962 161.84ZM533.562 125.36L530.026 128.896L530.038 128.907L530.049 128.919L533.562 125.36ZM566.682 161.84L570.774 158.967L570.767 158.957L570.76 158.948L566.682 161.84ZM566.522 179.6L569.616 183.527L569.638 183.51L569.66 183.492L566.522 179.6ZM548.922 175.92L552.778 172.738L552.765 172.722L552.751 172.706L548.922 175.92ZM528.442 152.4L532.188 149.089L532.178 149.077L532.168 149.066L528.442 152.4ZM501.242 176.24L504.825 179.727L504.839 179.712L504.853 179.698L501.242 176.24ZM518.042 78.1601L523.015 78.6702L523.019 78.6349L523.022 78.5996L518.042 78.1601ZM528.602 68.4001L528.858 63.4067L528.848 63.4062L528.839 63.4058L528.602 68.4001ZM549.882 67.9201L550.207 72.9095L555.13 72.5884L554.875 67.6618L549.882 67.9201ZM549.402 58.6401L554.395 58.3818L554.394 58.3678L549.402 58.6401ZM574.042 63.9201L579.038 63.7316L579.037 63.7184V63.7052L574.042 63.9201ZM574.042 114.64L569.044 114.47V114.477V114.484L574.042 114.64ZM550.362 115.92L555.348 116.292L555.353 116.217L555.357 116.142L550.362 115.92ZM550.682 89.8401L555.681 89.7581L555.593 84.4135L550.266 84.8574L550.682 89.8401ZM527.322 89.5201L528.029 84.5703L528.001 84.5664L527.974 84.5628L527.322 89.5201ZM448.762 117.84L450.89 113.316C449.367 112.599 448.543 111.584 448.263 110.193C447.944 108.605 448.175 105.685 450.735 101.062L446.362 98.6401L441.988 96.2176C438.788 101.995 437.499 107.395 438.46 112.167C439.46 117.136 442.716 120.521 446.633 122.364L448.762 117.84ZM446.362 98.6401L450.734 101.065C459.372 85.4861 474.046 68.4224 485.966 56.0256L482.362 52.5601L478.757 49.0945C466.677 61.6578 451.271 79.4741 441.989 96.2156L446.362 98.6401ZM482.362 52.5601L485.953 56.0391C487.859 54.0718 490.3 52.638 492.626 52.121C494.845 51.6279 496.802 51.9727 498.463 53.2845L501.562 49.3601L504.66 45.4357C500.241 41.9475 495.078 41.3323 490.457 42.3592C485.943 43.3622 481.824 45.9284 478.77 49.0811L482.362 52.5601ZM501.562 49.3601L498.483 53.3002C500.056 54.5293 500.824 56.0611 500.91 57.5318C500.993 58.9502 500.477 60.9734 498.186 63.2646L501.722 66.8001L505.257 70.3356C509.206 66.3868 511.17 61.69 510.893 56.9484C510.619 52.2591 508.187 48.1909 504.64 45.42L501.562 49.3601ZM501.722 66.8001L498.186 63.2646L492.906 68.5446L496.442 72.0801L499.977 75.6156L505.257 70.3356L501.722 66.8001ZM496.442 72.0801L492.773 75.4771C501.14 84.5138 510.961 91.819 520.822 99.1356L523.801 95.1201L526.781 91.1046C516.802 83.7012 507.743 76.9264 500.11 68.6831L496.442 72.0801ZM523.801 95.1201L520.825 99.1379C524.276 101.694 525.245 104.038 525.441 105.588C525.651 107.243 525.079 108.721 524.28 109.679L528.122 112.88L531.963 116.081C534.364 113.199 535.952 108.997 535.362 104.332C534.758 99.5621 531.967 94.9461 526.778 91.1023L523.801 95.1201ZM528.122 112.88L524.153 109.838C523.048 111.279 521.948 111.863 520.481 111.88C518.682 111.902 515.559 111.072 510.66 107.658L507.802 111.76L504.943 115.862C510.604 119.808 515.801 121.938 520.602 121.88C525.735 121.817 529.515 119.281 532.09 115.922L528.122 112.88ZM507.802 111.76L510.514 107.56C503.031 102.727 493.079 95.4125 484.266 86.7534L480.762 90.3201L477.257 93.8868C486.684 103.148 497.212 110.873 505.089 115.96L507.802 111.76ZM480.762 90.3201L476.896 87.1485C471.684 93.5013 467.053 99.7744 463.375 105.793L467.642 108.4L471.908 111.007C475.27 105.506 479.599 99.6189 484.627 93.4917L480.762 90.3201ZM467.642 108.4L463.413 105.732C460.376 110.546 457.83 112.699 455.961 113.544C454.364 114.267 452.832 114.236 450.902 113.321L448.762 117.84L446.621 122.359C450.771 124.324 455.399 124.773 460.082 122.656C464.493 120.661 468.347 116.654 471.87 111.068L467.642 108.4ZM483.482 179.92L486.571 175.988C485.152 174.874 484.63 173.831 484.576 172.684C484.512 171.324 485.058 168.806 487.996 164.794L483.962 161.84L479.927 158.886C476.305 163.834 474.371 168.596 474.587 173.156C474.813 177.929 477.331 181.446 480.392 183.852L483.482 179.92ZM483.962 161.84L488.013 164.771C493.209 157.587 507.91 142.091 520.089 129.1L516.442 125.68L512.794 122.26C500.973 134.869 485.594 151.053 479.91 158.909L483.962 161.84ZM516.442 125.68L520.089 129.1C521.748 127.331 523.485 126.615 524.961 126.556C526.386 126.499 528.157 127.026 530.026 128.896L533.562 125.36L537.097 121.824C533.526 118.254 529.137 116.381 524.562 116.564C520.038 116.745 515.935 118.909 512.794 122.26L516.442 125.68ZM533.562 125.36L530.049 128.919C542.22 140.93 556.647 156.332 562.603 164.732L566.682 161.84L570.76 158.948C564.236 149.748 549.223 133.79 537.074 121.801L533.562 125.36ZM566.682 161.84L562.589 164.713C564.857 167.943 565.485 170.34 565.443 171.907C565.406 173.288 564.848 174.526 563.383 175.708L566.522 179.6L569.66 183.492C573.155 180.674 575.317 176.792 575.44 172.173C575.558 167.74 573.786 163.257 570.774 158.967L566.682 161.84ZM566.522 179.6L563.427 175.673C561.946 176.84 560.371 177.164 558.739 176.825C557.007 176.465 554.863 175.265 552.778 172.738L548.922 175.92L545.065 179.102C548.26 182.975 552.276 185.695 556.704 186.615C561.232 187.556 565.817 186.52 569.616 183.527L566.522 179.6ZM548.922 175.92L552.751 172.706C545.179 163.683 538.243 155.941 532.188 149.089L528.442 152.4L524.695 155.711C530.8 162.619 537.624 170.237 545.092 179.134L548.922 175.92ZM528.442 152.4L532.168 149.066C531.425 148.235 530.55 147.332 529.564 146.626C528.546 145.898 527.02 145.1 525.075 145.141C523.123 145.183 521.627 146.051 520.632 146.84C519.673 147.601 518.841 148.557 518.137 149.437L522.042 152.56L525.946 155.683C526.215 155.347 526.426 155.102 526.591 154.925C526.672 154.839 526.735 154.777 526.78 154.734C526.826 154.691 526.847 154.674 526.846 154.675C526.845 154.676 526.813 154.701 526.751 154.74C526.688 154.779 526.589 154.835 526.454 154.893C526.169 155.016 525.769 155.129 525.288 155.139C524.283 155.16 523.707 154.732 523.744 154.759C523.755 154.766 523.844 154.832 524.024 155.006C524.202 155.177 524.427 155.412 524.715 155.734L528.442 152.4ZM522.042 152.56L518.137 149.437C512.474 156.516 504.732 165.364 497.63 172.782L501.242 176.24L504.853 179.698C512.151 172.076 520.089 163.004 525.946 155.683L522.042 152.56ZM501.242 176.24L497.658 172.753C492.895 177.648 488.087 177.168 486.551 175.973L483.482 179.92L480.412 183.867C487.516 189.392 498.068 186.672 504.825 179.727L501.242 176.24ZM518.042 78.1601L523.022 78.5996C523.188 76.7157 523.822 75.376 524.576 74.5952C525.223 73.9263 526.3 73.2962 528.364 73.3944L528.602 68.4001L528.839 63.4058C524.183 63.184 520.22 64.7139 517.387 67.645C514.661 70.4642 513.375 74.1645 513.061 77.7206L518.042 78.1601ZM528.602 68.4001L528.345 73.3935C534.893 73.7293 542.816 73.3915 550.207 72.9095L549.882 67.9201L549.556 62.9307C542.227 63.4087 534.79 63.7109 528.858 63.4067L528.602 68.4001ZM549.882 67.9201L554.875 67.6618L554.395 58.3818L549.402 58.6401L544.408 58.8984L544.888 68.1784L549.882 67.9201ZM549.402 58.6401L554.394 58.3678C554.195 54.7216 555.008 52.7682 555.847 51.7831C556.608 50.8907 558.032 50.0401 560.922 50.0401V45.0401V40.0401C555.971 40.0401 551.395 41.5895 548.236 45.2971C545.155 48.912 544.128 53.7586 544.409 58.9124L549.402 58.6401ZM560.922 45.0401V50.0401C563.528 50.0401 564.979 50.7072 566.045 52.0335C567.353 53.6601 568.743 57.0909 569.046 64.135L574.042 63.9201L579.037 63.7052C578.7 55.8693 577.13 49.8601 573.838 45.7667C570.304 41.373 565.515 40.0401 560.922 40.0401V45.0401ZM574.042 63.9201L569.045 64.1086C569.68 80.9233 569.521 100.48 569.044 114.47L574.042 114.64L579.039 114.81C579.522 100.64 579.683 80.8369 579.038 63.7316L574.042 63.9201ZM574.042 114.64L569.044 114.484C568.901 119.069 567.902 122.109 566.628 123.873C565.527 125.397 564.024 126.28 561.562 126.28V131.28V136.28C567.099 136.28 571.676 133.963 574.735 129.727C577.621 125.731 578.862 120.451 579.039 114.796L574.042 114.64ZM561.562 131.28V126.28C558.519 126.28 557.283 125.437 556.642 124.595C555.825 123.519 554.985 121.157 555.348 116.292L550.362 115.92L545.375 115.548C544.938 121.403 545.698 126.721 548.681 130.645C551.84 134.803 556.604 136.28 561.562 136.28V131.28ZM550.362 115.92L555.357 116.142C555.681 108.838 555.842 99.617 555.681 89.7581L550.682 89.8401L545.682 89.9221C545.841 99.5832 545.682 108.602 545.366 115.698L550.362 115.92ZM550.682 89.8401L550.266 84.8574C542.819 85.478 534.259 85.4604 528.029 84.5703L527.322 89.5201L526.614 94.4698C533.824 95.4998 543.184 95.4822 551.097 94.8228L550.682 89.8401ZM527.322 89.5201L527.974 84.5628C525.951 84.2967 524.697 83.5094 523.996 82.6715C523.324 81.8683 522.816 80.6143 523.015 78.6702L518.042 78.1601L513.068 77.65C512.627 81.9459 513.719 85.9719 516.327 89.0887C518.906 92.1707 522.612 93.9435 526.669 94.4774L527.322 89.5201ZM598.189 155.76L596.409 160.432L596.44 160.444L596.471 160.456L598.189 155.76ZM593.389 135.6L588.599 134.166L588.598 134.169L593.389 135.6ZM629.709 64.2401L633.958 66.8761L633.971 66.8539L633.985 66.8316L629.709 64.2401ZM648.429 58.1601L646.041 62.5532L646.068 62.5678L646.095 62.582L648.429 58.1601ZM652.269 75.7601L656.586 78.2829L656.595 78.2669L656.605 78.2507L652.269 75.7601ZM645.069 88.0801L640.752 85.5573L639.373 87.9165L640.614 90.351L645.069 88.0801ZM674.829 131.28L678.66 128.067L678.654 128.059L674.829 131.28ZM678.029 152.56L681.445 156.211L681.47 156.188L681.495 156.164L678.029 152.56ZM656.589 147.44L653.093 151.014L653.104 151.026L653.116 151.037L656.589 147.44ZM631.149 112.4L635.589 110.1L631.284 101.791L626.769 109.988L631.149 112.4ZM615.309 144.4L619.93 146.31L619.936 146.296L619.941 146.282L615.309 144.4ZM697.069 160.24L692.071 160.087V160.091L697.069 160.24ZM697.389 64.2401L692.39 64.331V64.3423V64.3537L697.389 64.2401ZM722.509 69.5201L717.512 69.6813V69.6891V69.697L722.509 69.5201ZM598.189 155.76L599.969 151.088C597.694 150.221 597.043 149.302 596.731 148.092C596.268 146.296 596.394 143.01 598.18 137.031L593.389 135.6L588.598 134.169C586.704 140.51 585.87 146.024 587.047 150.588C588.375 155.738 591.964 158.739 596.409 160.432L598.189 155.76ZM593.389 135.6L598.179 137.034C604.518 115.852 620.304 88.8819 633.958 66.8761L629.709 64.2401L625.46 61.6041C611.914 83.4382 595.38 111.508 588.599 134.166L593.389 135.6ZM629.709 64.2401L633.985 66.8316C635.023 65.1196 637.018 63.3129 639.385 62.3548C641.647 61.4393 643.925 61.4032 646.041 62.5532L648.429 58.1601L650.817 53.767C645.573 50.917 640.091 51.2809 635.633 53.0854C631.28 54.8472 627.595 58.0806 625.433 61.6486L629.709 64.2401ZM648.429 58.1601L646.095 62.582C647.788 63.4752 648.867 64.8695 649.282 66.5076C649.696 68.1434 649.549 70.4579 647.933 73.2695L652.269 75.7601L656.605 78.2507C659.309 73.5423 660.122 68.5768 658.976 64.0526C657.831 59.5307 654.83 55.885 650.763 53.7382L648.429 58.1601ZM652.269 75.7601L647.952 73.2373L640.752 85.5573L645.069 88.0801L649.386 90.6029L656.586 78.2829L652.269 75.7601ZM645.069 88.0801L640.614 90.351C649.187 107.166 660.665 122.222 671.004 134.501L674.829 131.28L678.654 128.059C668.513 116.018 657.591 101.634 649.524 85.8092L645.069 88.0801ZM674.829 131.28L670.998 134.493C674.75 138.966 675.952 142.33 676.124 144.53C676.284 146.575 675.597 147.962 674.563 148.956L678.029 152.56L681.495 156.164C684.621 153.158 686.494 148.865 686.094 143.75C685.706 138.79 683.228 133.514 678.66 128.067L674.829 131.28ZM678.029 152.56L674.613 148.909C673.283 150.153 671.883 150.605 669.941 150.204C667.677 149.736 664.379 148.011 660.062 143.843L656.589 147.44L653.116 151.037C658.079 155.829 663.021 158.984 667.917 159.996C673.135 161.075 677.815 159.607 681.445 156.211L678.029 152.56ZM656.589 147.44L660.085 143.866C653.11 137.042 642.227 122.914 635.589 110.1L631.149 112.4L626.709 114.7C633.831 128.446 645.348 143.438 653.093 151.014L656.589 147.44ZM631.149 112.4L626.769 109.988C620.672 121.059 614.953 131.992 610.677 142.518L615.309 144.4L619.941 146.282C623.985 136.328 629.466 125.821 635.529 114.812L631.149 112.4ZM615.309 144.4L610.688 142.49C608.359 148.125 606.264 150.333 604.849 151.15C603.739 151.791 602.369 151.965 599.907 151.064L598.189 155.76L596.471 160.456C600.569 161.955 605.279 162.449 609.849 159.81C614.114 157.347 617.299 152.675 619.93 146.31L615.309 144.4ZM697.069 160.24L702.067 160.393C703.03 128.934 703.029 92.3649 702.388 64.1265L697.389 64.2401L692.39 64.3537C693.029 92.4353 693.028 128.826 692.071 160.087L697.069 160.24ZM697.389 64.2401L702.388 64.1492C702.324 60.604 703.232 58.6064 704.225 57.5288C705.177 56.4963 706.821 55.6401 709.709 55.6401V50.6401V45.6401C704.757 45.6401 700.161 47.1839 696.873 50.7514C693.626 54.2738 692.294 59.0761 692.39 64.331L697.389 64.2401ZM709.709 50.6401V55.6401C712.314 55.6401 713.691 56.304 714.693 57.5831C715.952 59.1908 717.284 62.6132 717.512 69.6813L722.509 69.5201L727.506 69.3589C727.254 61.547 725.786 55.5294 722.565 51.4171C719.087 46.9762 714.304 45.6401 709.709 45.6401V50.6401ZM722.509 69.5201L717.512 69.697C718.147 87.6247 717.829 136.127 716.714 160.007L721.709 160.24L726.704 160.474C727.829 136.354 728.151 87.5755 727.506 69.3432L722.509 69.5201ZM721.709 160.24L716.714 160.006C716.497 164.644 715.496 167.711 714.222 169.491C713.136 171.01 711.676 171.88 709.229 171.88V176.88V181.88C714.782 181.88 719.322 179.55 722.356 175.309C725.202 171.329 726.441 166.076 726.704 160.474L721.709 160.24ZM709.229 176.88V171.88C706.594 171.88 705.066 170.985 704.053 169.612C702.884 168.027 701.925 165.131 702.067 160.389L697.069 160.24L692.071 160.091C691.893 166.069 693.014 171.493 696.005 175.548C699.152 179.815 703.864 181.88 709.229 181.88V176.88Z" fill="#FAFAFA"/>
</g>
</svg>
