<svg viewBox="0 0 960 232" fill="none" xmlns="http://www.w3.org/2000/svg">
<path d="M70.9109 183.16C64.1909 183.16 59.3909 178.84 59.3909 171.16C59.3909 159.32 59.0709 119.96 59.2309 96.2797H35.0709C26.9109 96.2797 21.6309 92.4397 21.6309 85.8797C21.6309 80.2797 25.3108 74.9997 35.0709 74.5197C49.1509 73.7197 90.4309 74.0397 103.871 74.3597C115.071 74.6797 117.791 79.6397 117.791 85.3997C117.791 90.9997 113.311 96.1197 103.871 96.1197H82.9109C83.0709 119.16 83.2309 162.36 83.0709 171C82.9109 178.36 77.3109 183.16 70.9109 183.16ZM137.923 184.6C132.803 184.92 126.403 180.92 126.403 172.92C126.403 152.6 126.563 112.28 126.563 106.52C126.723 94.0397 131.683 90.3597 138.082 90.3597C143.683 90.3597 147.683 93.0797 149.123 99.3197C156.163 94.6797 161.602 92.5997 168.643 92.5997C177.123 92.5997 183.843 96.5997 188.803 106.52C191.843 112.44 190.883 117.88 186.883 120.12C183.043 122.52 179.203 123 175.523 119.16C172.643 116.44 170.883 114.52 163.683 114.52C158.563 114.52 154.083 116.6 149.763 120.6C149.763 138.36 149.603 155.8 149.603 171.64C149.603 179.96 143.203 184.28 137.923 184.6ZM218.31 184.6C213.35 184.92 206.95 180.92 206.95 172.92C206.95 152.6 207.11 123.64 207.11 117.88C207.27 105.24 212.23 101.72 218.63 101.72C225.83 101.72 230.15 106.2 230.15 117.24C230.15 139.96 229.99 151.48 229.99 171.64C229.99 179.96 223.75 184.28 218.31 184.6ZM204.39 77.0797C204.39 68.4397 209.51 63.3197 219.11 63.3197C228.07 63.3197 233.67 68.5997 233.67 77.2397C233.67 84.4397 229.35 90.3597 219.11 90.3597C208.87 90.3597 204.39 85.7197 204.39 77.0797ZM268.384 214.04C261.664 214.04 257.184 212.12 257.024 201.88C256.864 192.12 256.864 115.32 256.864 108.28C256.864 101.4 258.304 98.9997 262.624 97.3997C270.624 94.3597 277.504 92.5997 291.264 92.5997C303.584 92.5997 313.024 96.2797 321.024 102.84C328.864 109.24 332.224 119.8 332.224 133.88C332.224 161.56 313.984 176.6 295.104 177.24C288.544 177.4 282.784 176.6 278.624 175.64C278.464 185.24 278.464 194.2 278.464 201.56C278.464 209.56 273.024 214.04 268.384 214.04ZM278.624 153.72C282.304 155.16 287.104 156.44 292.384 156.44C306.144 156.44 310.304 145.72 310.304 133.56C310.304 125.4 308.384 118.68 302.464 115.48C297.824 112.92 290.144 112.44 284.864 113.08C280.224 113.72 278.784 115.32 278.784 122.2C278.784 131.8 278.784 142.68 278.624 153.72ZM434.335 182.04C411.135 182.04 383.775 162.36 383.775 127.8C383.775 101.72 397.855 71.4797 435.455 71.4797C461.375 71.4797 483.135 88.7597 483.135 127.8C483.135 157.08 464.575 182.04 434.335 182.04ZM408.735 127.64C408.735 149.56 421.855 159.32 434.815 159.32C449.855 159.32 459.615 145.24 459.615 126.2C459.615 107.16 451.455 91.7997 434.015 91.7997C416.735 91.7997 408.735 108.28 408.735 127.64ZM500.755 99.1597C497.235 98.0397 496.915 95.1597 498.515 90.6797C500.115 86.1997 501.235 81.2397 501.235 77.7197C501.235 75.1597 496.755 72.9197 496.755 64.9197C496.755 58.0397 501.075 53.7197 509.395 53.7197C514.995 53.7197 520.755 59.4797 520.755 67.7997C520.755 76.2797 516.435 86.1997 511.315 94.1997C509.075 97.7197 504.435 100.28 500.755 99.1597ZM582.091 181.4C554.251 181.4 534.091 166.04 534.091 127.8C534.091 93.0797 545.611 70.9997 580.011 70.9997C596.491 70.9997 606.731 77.2397 615.051 83.7997C619.691 87.6397 619.691 94.3597 616.651 98.5197C614.091 101.72 607.371 105.08 601.771 100.44C596.011 95.9597 592.011 91.4797 580.331 91.4797C564.651 91.4797 557.131 103 557.131 126.36C557.131 150.04 567.051 158.68 582.091 158.68C592.331 158.68 600.011 151.96 604.011 146.52C606.891 143.16 612.331 140.28 618.891 146.2C623.211 149.88 624.171 157.56 617.451 164.76C610.571 171.96 603.691 181.4 582.091 181.4ZM652.536 182.84C645.656 183.32 640.696 179.32 640.696 171.32C640.696 151 640.696 84.7597 640.856 76.4397C641.016 66.9997 644.216 62.6797 652.376 62.6797C659.416 62.6797 663.576 67.3197 663.576 76.2797L663.416 170.52C663.416 176.28 658.936 182.52 652.536 182.84ZM728.229 183.16C705.669 183.16 685.029 170.36 685.029 138.04C685.029 110.68 702.309 91.4797 728.229 91.4797C752.549 91.4797 770.309 104.6 770.309 138.2C770.309 163.32 757.029 183.16 728.229 183.16ZM707.429 137.56C707.429 151.64 715.589 161.72 728.389 161.72C743.109 161.72 748.869 149.72 748.869 137.88C748.869 119.64 739.749 112.6 727.909 112.6C713.829 112.6 707.429 123.48 707.429 137.56ZM828.586 182.36C809.866 182.36 784.106 167.8 784.106 137.4C784.106 109.56 806.026 90.9997 831.306 90.9997C843.786 90.9997 851.626 94.3597 860.106 104.12C863.466 107.96 862.826 115.64 857.866 118.36C853.066 121.24 847.306 122.52 843.146 117.56C840.586 114.36 836.746 111.8 829.706 111.8C818.346 111.8 807.306 119.16 807.306 136.92C807.306 150.52 815.466 160.44 834.186 160.44C841.706 160.44 845.386 156.76 848.426 154.68C851.626 152.76 855.146 154.36 857.706 158.2C860.426 162.2 861.866 168.6 855.786 173.56C849.866 178.52 844.426 182.36 828.586 182.36ZM890.598 182.84C883.718 183.32 878.758 179.32 878.758 171.32C878.758 151 878.758 86.0397 878.918 77.7197C879.078 68.2797 881.958 63.9597 890.278 63.9597C897.158 63.9597 901.158 68.5997 901.158 77.5597V119.64C910.758 111.32 923.878 101.4 934.598 94.6797C942.438 89.8797 948.518 92.1197 951.398 96.7597C954.118 101.08 952.518 105.88 946.438 110.52C939.718 115.64 927.398 125.88 920.838 131.16C919.078 132.6 918.918 133.4 921.158 135.32C931.558 144.28 943.398 154.68 951.878 164.92C957.158 171.64 954.758 177.88 951.078 180.92C947.398 183.96 940.998 184.44 935.238 178.52C930.118 173.24 913.638 157.24 900.998 147V170.52C900.998 176.28 896.998 182.52 890.598 182.84Z" fill="#5500FF"/>
<mask id="mask0_400_2260" style="mask-type:luminance" maskUnits="userSpaceOnUse" x="16" y="48" width="944" height="172">
<path d="M960 48H16V220H960V48Z" fill="white"/>
<path d="M70.9109 183.16C64.1909 183.16 59.3909 178.84 59.3909 171.16C59.3909 159.32 59.0709 119.96 59.2309 96.2797H35.0709C26.9109 96.2797 21.6309 92.4397 21.6309 85.8797C21.6309 80.2797 25.3108 74.9997 35.0709 74.5197C49.1509 73.7197 90.4309 74.0397 103.871 74.3597C115.071 74.6797 117.791 79.6397 117.791 85.3997C117.791 90.9997 113.311 96.1197 103.871 96.1197H82.9109C83.0709 119.16 83.2309 162.36 83.0709 171C82.9109 178.36 77.3109 183.16 70.9109 183.16ZM137.923 184.6C132.803 184.92 126.403 180.92 126.403 172.92C126.403 152.6 126.563 112.28 126.563 106.52C126.723 94.0397 131.683 90.3597 138.082 90.3597C143.683 90.3597 147.683 93.0797 149.123 99.3197C156.163 94.6797 161.602 92.5997 168.643 92.5997C177.123 92.5997 183.843 96.5997 188.803 106.52C191.843 112.44 190.883 117.88 186.883 120.12C183.043 122.52 179.203 123 175.523 119.16C172.643 116.44 170.883 114.52 163.683 114.52C158.563 114.52 154.083 116.6 149.763 120.6C149.763 138.36 149.603 155.8 149.603 171.64C149.603 179.96 143.203 184.28 137.923 184.6ZM218.31 184.6C213.35 184.92 206.95 180.92 206.95 172.92C206.95 152.6 207.11 123.64 207.11 117.88C207.27 105.24 212.23 101.72 218.63 101.72C225.83 101.72 230.15 106.2 230.15 117.24C230.15 139.96 229.99 151.48 229.99 171.64C229.99 179.96 223.75 184.28 218.31 184.6ZM204.39 77.0797C204.39 68.4397 209.51 63.3197 219.11 63.3197C228.07 63.3197 233.67 68.5997 233.67 77.2397C233.67 84.4397 229.35 90.3597 219.11 90.3597C208.87 90.3597 204.39 85.7197 204.39 77.0797ZM268.384 214.04C261.664 214.04 257.184 212.12 257.024 201.88C256.864 192.12 256.864 115.32 256.864 108.28C256.864 101.4 258.304 98.9997 262.624 97.3997C270.624 94.3597 277.504 92.5997 291.264 92.5997C303.584 92.5997 313.024 96.2797 321.024 102.84C328.864 109.24 332.224 119.8 332.224 133.88C332.224 161.56 313.984 176.6 295.104 177.24C288.544 177.4 282.784 176.6 278.624 175.64C278.464 185.24 278.464 194.2 278.464 201.56C278.464 209.56 273.024 214.04 268.384 214.04ZM278.624 153.72C282.304 155.16 287.104 156.44 292.384 156.44C306.144 156.44 310.304 145.72 310.304 133.56C310.304 125.4 308.384 118.68 302.464 115.48C297.824 112.92 290.144 112.44 284.864 113.08C280.224 113.72 278.784 115.32 278.784 122.2C278.784 131.8 278.784 142.68 278.624 153.72ZM434.335 182.04C411.135 182.04 383.775 162.36 383.775 127.8C383.775 101.72 397.855 71.4797 435.455 71.4797C461.375 71.4797 483.135 88.7597 483.135 127.8C483.135 157.08 464.575 182.04 434.335 182.04ZM408.735 127.64C408.735 149.56 421.855 159.32 434.815 159.32C449.855 159.32 459.615 145.24 459.615 126.2C459.615 107.16 451.455 91.7997 434.015 91.7997C416.735 91.7997 408.735 108.28 408.735 127.64ZM500.755 99.1597C497.235 98.0397 496.915 95.1597 498.515 90.6797C500.115 86.1997 501.235 81.2397 501.235 77.7197C501.235 75.1597 496.755 72.9197 496.755 64.9197C496.755 58.0397 501.075 53.7197 509.395 53.7197C514.995 53.7197 520.755 59.4797 520.755 67.7997C520.755 76.2797 516.435 86.1997 511.315 94.1997C509.075 97.7197 504.435 100.28 500.755 99.1597ZM582.091 181.4C554.251 181.4 534.091 166.04 534.091 127.8C534.091 93.0797 545.611 70.9997 580.011 70.9997C596.491 70.9997 606.731 77.2397 615.051 83.7997C619.691 87.6397 619.691 94.3597 616.651 98.5197C614.091 101.72 607.371 105.08 601.771 100.44C596.011 95.9597 592.011 91.4797 580.331 91.4797C564.651 91.4797 557.131 103 557.131 126.36C557.131 150.04 567.051 158.68 582.091 158.68C592.331 158.68 600.011 151.96 604.011 146.52C606.891 143.16 612.331 140.28 618.891 146.2C623.211 149.88 624.171 157.56 617.451 164.76C610.571 171.96 603.691 181.4 582.091 181.4ZM652.536 182.84C645.656 183.32 640.696 179.32 640.696 171.32C640.696 151 640.696 84.7597 640.856 76.4397C641.016 66.9997 644.216 62.6797 652.376 62.6797C659.416 62.6797 663.576 67.3197 663.576 76.2797L663.416 170.52C663.416 176.28 658.936 182.52 652.536 182.84ZM728.229 183.16C705.669 183.16 685.029 170.36 685.029 138.04C685.029 110.68 702.309 91.4797 728.229 91.4797C752.549 91.4797 770.309 104.6 770.309 138.2C770.309 163.32 757.029 183.16 728.229 183.16ZM707.429 137.56C707.429 151.64 715.589 161.72 728.389 161.72C743.109 161.72 748.869 149.72 748.869 137.88C748.869 119.64 739.749 112.6 727.909 112.6C713.829 112.6 707.429 123.48 707.429 137.56ZM828.586 182.36C809.866 182.36 784.106 167.8 784.106 137.4C784.106 109.56 806.026 90.9997 831.306 90.9997C843.786 90.9997 851.626 94.3597 860.106 104.12C863.466 107.96 862.826 115.64 857.866 118.36C853.066 121.24 847.306 122.52 843.146 117.56C840.586 114.36 836.746 111.8 829.706 111.8C818.346 111.8 807.306 119.16 807.306 136.92C807.306 150.52 815.466 160.44 834.186 160.44C841.706 160.44 845.386 156.76 848.426 154.68C851.626 152.76 855.146 154.36 857.706 158.2C860.426 162.2 861.866 168.6 855.786 173.56C849.866 178.52 844.426 182.36 828.586 182.36ZM890.598 182.84C883.718 183.32 878.758 179.32 878.758 171.32C878.758 151 878.758 86.0397 878.918 77.7197C879.078 68.2797 881.958 63.9597 890.278 63.9597C897.158 63.9597 901.158 68.5997 901.158 77.5597V119.64C910.758 111.32 923.878 101.4 934.598 94.6797C942.438 89.8797 948.518 92.1197 951.398 96.7597C954.118 101.08 952.518 105.88 946.438 110.52C939.718 115.64 927.398 125.88 920.838 131.16C919.078 132.6 918.918 133.4 921.158 135.32C931.558 144.28 943.398 154.68 951.878 164.92C957.158 171.64 954.758 177.88 951.078 180.92C947.398 183.96 940.998 184.44 935.238 178.52C930.118 173.24 913.638 157.24 900.998 147V170.52C900.998 176.28 896.998 182.52 890.598 182.84Z" fill="black"/>
</mask>
<g mask="url(#mask0_400_2260)">
<path d="M59.2309 96.2797L64.2307 96.3135L64.2647 91.2797H59.2309V96.2797ZM35.0709 74.5197L35.3165 79.5137L35.3355 79.5127L35.3545 79.5116L35.0709 74.5197ZM103.871 74.3597L104.014 69.3617L104.002 69.3614L103.99 69.3611L103.871 74.3597ZM82.9109 96.1197V91.1197H77.876L77.911 96.1544L82.9109 96.1197ZM83.0709 171L88.0697 171.109L88.0698 171.101L88.07 171.093L83.0709 171ZM70.9109 183.16V178.16C68.6313 178.16 67.1082 177.446 66.1664 176.504C65.2352 175.573 64.3909 173.937 64.3909 171.16H59.3909H54.3909C54.3909 176.063 55.9465 180.427 59.0953 183.576C62.2335 186.714 66.4704 188.16 70.9109 188.16V183.16ZM59.3909 171.16H64.3909C64.3909 159.224 64.0708 119.989 64.2307 96.3135L59.2309 96.2797L54.231 96.2459C54.0709 119.931 54.3909 159.416 54.3909 171.16H59.3909ZM59.2309 96.2797V91.2797H35.0709V96.2797V101.28H59.2309V96.2797ZM35.0709 96.2797V91.2797C31.7012 91.2797 29.5254 90.4786 28.318 89.5602C27.2702 88.7631 26.6309 87.6606 26.6309 85.8797H21.6309H16.6309C16.6309 90.6588 18.6315 94.7563 22.2637 97.5192C25.7363 100.161 30.2805 101.28 35.0709 101.28V96.2797ZM21.6309 85.8797H26.6309C26.6309 84.1922 27.1628 82.8497 28.1758 81.8651C29.2121 80.8578 31.2855 79.7119 35.3165 79.5137L35.0709 74.5197L34.8252 69.5257C29.0962 69.8075 24.4496 71.5415 21.2059 74.6943C17.9389 77.8697 16.6309 81.9672 16.6309 85.8797H21.6309ZM35.0709 74.5197L35.3545 79.5116C49.2076 78.7245 90.2999 79.038 103.752 79.3583L103.871 74.3597L103.99 69.3611C90.5618 69.0414 49.0942 68.7148 34.7872 69.5277L35.0709 74.5197ZM103.871 74.3597L103.728 79.3577C108.719 79.5002 110.752 80.6615 111.566 81.4439C112.294 82.144 112.791 83.2599 112.791 85.3997H117.791H122.791C122.791 81.7794 121.929 77.5353 118.497 74.2355C115.15 71.0179 110.223 69.5391 104.014 69.3617L103.871 74.3597ZM117.791 85.3997H112.791C112.791 86.8108 112.256 88.0831 111.109 89.0704C109.927 90.0881 107.705 91.1197 103.871 91.1197V96.1197V101.12C109.478 101.12 114.215 99.5913 117.633 96.649C121.086 93.6763 122.791 89.5886 122.791 85.3997H117.791ZM103.871 96.1197V91.1197H82.9109V96.1197V101.12H103.871V96.1197ZM82.9109 96.1197L77.911 96.1544C78.0712 119.228 78.2302 162.348 78.0717 170.907L83.0709 171L88.07 171.093C88.2315 162.372 88.0705 119.092 87.9107 96.085L82.9109 96.1197ZM83.0709 171L78.072 170.891C77.9736 175.42 74.706 178.16 70.9109 178.16V183.16V188.16C79.9157 188.16 87.8481 181.3 88.0697 171.109L83.0709 171ZM137.923 184.6L137.62 179.609L137.611 179.61L137.923 184.6ZM126.563 106.52L121.563 106.456V106.488V106.52H126.563ZM149.123 99.3197L144.251 100.444L145.868 107.453L151.874 103.495L149.123 99.3197ZM188.803 106.52L184.33 108.756L184.342 108.78L184.355 108.804L188.803 106.52ZM186.883 120.12L184.439 115.757L184.335 115.816L184.233 115.88L186.883 120.12ZM175.523 119.16L179.132 115.7L179.046 115.61L178.956 115.525L175.523 119.16ZM149.763 120.6L146.365 116.931L144.763 118.415V120.6H149.763ZM137.923 184.6L137.611 179.61C135.02 179.772 131.403 177.697 131.403 172.92H126.403H121.403C121.403 184.143 130.585 190.068 138.234 189.59L137.923 184.6ZM126.403 172.92H131.403C131.403 162.769 131.442 147.616 131.482 134.275C131.522 120.946 131.563 109.41 131.563 106.52H126.563H121.563C121.563 109.39 121.523 120.894 121.483 134.245C121.443 147.584 121.403 162.751 121.403 172.92H126.403ZM126.563 106.52L131.562 106.584C131.635 100.858 132.821 98.1674 133.829 96.9545C134.663 95.9495 135.877 95.3597 138.082 95.3597V90.3597V85.3597C133.888 85.3597 129.422 86.6098 126.136 90.5649C123.024 94.312 121.65 99.7015 121.563 106.456L126.563 106.52ZM138.082 90.3597V95.3597C140.078 95.3597 141.307 95.8366 142.096 96.4487C142.867 97.048 143.726 98.1717 144.251 100.444L149.123 99.3197L153.994 98.1954C153.079 94.2277 151.218 90.8714 148.229 88.5507C145.258 86.2428 141.687 85.3597 138.082 85.3597V90.3597ZM149.123 99.3197L151.874 103.495C158.396 99.1961 162.885 97.5997 168.643 97.5997V92.5997V87.5997C160.32 87.5997 153.929 90.1633 146.371 95.1449L149.123 99.3197ZM168.643 92.5997V97.5997C172.054 97.5997 174.853 98.3893 177.269 99.9997C179.725 101.637 182.13 104.355 184.33 108.756L188.803 106.52L193.275 104.284C190.515 98.7651 187.08 94.5222 182.816 91.6794C178.512 88.8101 173.711 87.5997 168.643 87.5997V92.5997ZM188.803 106.52L184.355 108.804C185.513 111.06 185.707 112.838 185.539 113.952C185.384 114.973 184.952 115.471 184.439 115.757L186.883 120.12L189.326 124.483C196.739 120.331 196.873 111.29 193.25 104.236L188.803 106.52ZM186.883 120.12L184.233 115.88C182.754 116.804 181.826 116.999 181.3 116.982C180.948 116.971 180.248 116.865 179.132 115.7L175.523 119.16L171.913 122.62C174.477 125.295 177.537 126.869 180.985 126.978C184.259 127.081 187.171 125.836 189.533 124.36L186.883 120.12ZM175.523 119.16L178.956 115.525C177.682 114.322 175.935 112.542 173.395 111.317C170.769 110.05 167.699 109.52 163.683 109.52V114.52V119.52C166.866 119.52 168.276 119.95 169.05 120.323C169.91 120.738 170.483 121.278 172.089 122.795L175.523 119.16ZM163.683 114.52V109.52C157.006 109.52 151.366 112.301 146.365 116.931L149.763 120.6L153.16 124.269C156.799 120.899 160.119 119.52 163.683 119.52V114.52ZM149.763 120.6H144.763C144.763 129.467 144.723 138.255 144.683 146.817C144.643 155.373 144.603 163.706 144.603 171.64H149.603H154.603C154.603 163.734 154.642 155.427 154.682 146.863C154.722 138.305 154.763 129.493 154.763 120.6H149.763ZM149.603 171.64H144.603C144.603 176.846 140.758 179.419 137.62 179.609L137.923 184.6L138.225 189.591C145.647 189.141 154.603 183.074 154.603 171.64H149.603ZM218.31 184.6L218.016 179.609H218.002L217.988 179.61L218.31 184.6ZM207.11 117.88L202.11 117.817V117.848V117.88H207.11ZM218.31 184.6L217.988 179.61C215.615 179.763 211.95 177.745 211.95 172.92H206.95H201.95C201.95 184.095 211.085 190.077 218.632 189.59L218.31 184.6ZM206.95 172.92H211.95C211.95 162.77 211.99 150.459 212.03 139.959C212.07 129.473 212.11 120.773 212.11 117.88H207.11H202.11C202.11 120.747 202.07 129.407 202.03 139.921C201.99 150.421 201.95 162.75 201.95 172.92H206.95ZM207.11 117.88L212.11 117.943C212.183 112.12 213.376 109.449 214.363 108.27C215.173 107.303 216.368 106.72 218.63 106.72V101.72V96.7197C214.492 96.7197 210.007 97.8965 206.697 101.85C203.564 105.591 202.197 111 202.11 117.817L207.11 117.88ZM218.63 101.72V106.72C221.129 106.72 222.375 107.44 223.17 108.444C224.146 109.677 225.15 112.232 225.15 117.24H230.15H235.15C235.15 111.208 233.994 106.003 231.01 102.236C227.845 98.2392 223.331 96.7197 218.63 96.7197V101.72ZM230.15 117.24H225.15C225.15 128.587 225.11 137.137 225.07 145.376C225.03 153.615 224.99 161.546 224.99 171.64H229.99H234.99C234.99 161.574 235.03 153.665 235.07 145.424C235.11 137.183 235.15 128.613 235.15 117.24H230.15ZM229.99 171.64H224.99C224.99 176.888 221.259 179.418 218.016 179.609L218.31 184.6L218.604 189.591C226.241 189.142 234.99 183.032 234.99 171.64H229.99ZM204.39 77.0797H209.39C209.39 73.7513 210.352 71.766 211.597 70.5818C212.876 69.3644 215.162 68.3197 219.11 68.3197V63.3197V58.3197C213.458 58.3197 208.384 59.835 204.703 63.3376C200.988 66.8734 199.39 71.7681 199.39 77.0797H204.39ZM219.11 63.3197V68.3197C222.617 68.3197 224.915 69.3393 226.302 70.6604C227.659 71.9534 228.67 74.0317 228.67 77.2397H233.67H238.67C238.67 71.8077 236.881 66.926 233.198 63.419C229.545 59.9401 224.563 58.3197 219.11 58.3197V63.3197ZM233.67 77.2397H228.67C228.67 79.8601 227.897 81.7516 226.68 82.9791C225.487 84.1819 223.26 85.3597 219.11 85.3597V90.3597V95.3597C225.2 95.3597 230.253 93.5775 233.78 90.0203C237.283 86.4878 238.67 81.8193 238.67 77.2397H233.67ZM219.11 90.3597V85.3597C214.642 85.3597 212.428 84.3366 211.322 83.3044C210.285 82.3369 209.39 80.5793 209.39 77.0797H204.39H199.39C199.39 82.2201 200.735 87.1025 204.498 90.615C208.192 94.0628 213.338 95.3597 219.11 95.3597V90.3597ZM257.024 201.88L262.023 201.802V201.798L257.024 201.88ZM262.624 97.3997L264.36 102.089L264.38 102.081L264.4 102.074L262.624 97.3997ZM321.024 102.84L317.853 106.706L317.862 106.713L321.024 102.84ZM295.104 177.24L295.226 182.239L295.249 182.238L295.273 182.237L295.104 177.24ZM278.624 175.64L279.748 170.768L273.727 169.379L273.624 175.557L278.624 175.64ZM278.624 153.72L273.624 153.648L273.574 157.113L276.802 158.376L278.624 153.72ZM302.464 115.48L300.048 119.858L300.067 119.868L300.086 119.879L302.464 115.48ZM284.864 113.08L284.262 108.116L284.221 108.121L284.181 108.127L284.864 113.08ZM268.384 214.04V209.04C265.263 209.04 264.094 208.533 263.566 208.063C263.131 207.676 262.094 206.366 262.023 201.802L257.024 201.88L252.024 201.958C252.113 207.634 253.397 212.404 256.922 215.537C260.353 218.587 264.784 219.04 268.384 219.04V214.04ZM257.024 201.88L262.023 201.798C261.864 192.092 261.864 115.362 261.864 108.28H256.864H251.864C251.864 115.278 251.864 192.148 252.024 201.962L257.024 201.88ZM256.864 108.28H261.864C261.864 105.003 262.245 103.75 262.519 103.243C262.626 103.047 262.824 102.658 264.36 102.089L262.624 97.3997L260.887 92.711C258.104 93.7418 255.422 95.3525 253.728 98.4766C252.203 101.29 251.864 104.677 251.864 108.28H256.864ZM262.624 97.3997L264.4 102.074C271.839 99.2467 278.118 97.5997 291.264 97.5997V92.5997V87.5997C276.89 87.5997 269.408 89.4727 260.848 92.7258L262.624 97.3997ZM291.264 92.5997V97.5997C302.443 97.5997 310.759 100.889 317.853 106.706L321.024 102.84L324.194 98.9734C315.288 91.6705 304.724 87.5997 291.264 87.5997V92.5997ZM321.024 102.84L317.862 106.713C324 111.724 327.224 120.43 327.224 133.88H332.224H337.224C337.224 119.17 333.728 106.756 324.186 98.9664L321.024 102.84ZM332.224 133.88H327.224C327.224 158.956 311.03 171.697 294.934 172.243L295.104 177.24L295.273 182.237C316.937 181.503 337.224 164.164 337.224 133.88H332.224ZM295.104 177.24L294.982 172.241C288.882 172.39 283.542 171.644 279.748 170.768L278.624 175.64L277.499 180.512C282.026 181.556 288.205 182.41 295.226 182.239L295.104 177.24ZM278.624 175.64L273.624 175.557C273.464 185.204 273.464 194.203 273.464 201.56H278.464H283.464C283.464 194.197 283.464 185.276 283.623 175.723L278.624 175.64ZM278.464 201.56H273.464C273.464 207.225 269.854 209.04 268.384 209.04V214.04V219.04C276.194 219.04 283.464 211.895 283.464 201.56H278.464ZM278.624 153.72L276.802 158.376C280.888 159.975 286.317 161.44 292.384 161.44V156.44V151.44C287.89 151.44 283.719 150.345 280.446 149.064L278.624 153.72ZM292.384 156.44V161.44C300.793 161.44 306.916 158.037 310.682 152.306C314.218 146.925 315.304 140.06 315.304 133.56H310.304H305.304C305.304 139.22 304.309 143.795 302.325 146.814C300.571 149.483 297.734 151.44 292.384 151.44V156.44ZM310.304 133.56H315.304C315.304 124.993 313.332 115.671 304.841 111.081L302.464 115.48L300.086 119.879C303.436 121.689 305.304 125.807 305.304 133.56H310.304ZM302.464 115.48L304.879 111.102C301.756 109.379 297.951 108.509 294.47 108.112C290.924 107.708 287.292 107.749 284.262 108.116L284.864 113.08L285.465 118.044C287.715 117.771 290.564 117.732 293.338 118.048C296.176 118.371 298.532 119.021 300.048 119.858L302.464 115.48ZM284.864 113.08L284.181 108.127C281.581 108.486 278.196 109.284 275.99 112.429C274.062 115.178 273.784 118.766 273.784 122.2H278.784H283.784C283.784 120.616 283.87 119.568 283.999 118.867C284.125 118.178 284.252 118.064 284.177 118.171C283.851 118.636 283.507 118.314 285.547 118.033L284.864 113.08ZM278.784 122.2H273.784C273.784 131.805 273.784 142.649 273.624 153.648L278.624 153.72L283.623 153.792C283.784 142.711 283.784 131.795 283.784 122.2H278.784ZM434.335 182.04V177.04C413.645 177.04 388.775 159.354 388.775 127.8H383.775H378.775C378.775 165.366 408.625 187.04 434.335 187.04V182.04ZM383.775 127.8H388.775C388.775 115.558 392.095 102.627 399.496 92.8844C406.751 83.3346 418.185 76.4797 435.455 76.4797V71.4797V66.4797C415.125 66.4797 400.719 74.7448 391.534 86.835C382.495 98.7331 378.775 113.962 378.775 127.8H383.775ZM435.455 71.4797V76.4797C447.29 76.4797 457.803 80.4018 465.378 88.431C472.965 96.4726 478.135 109.199 478.135 127.8H483.135H488.135C488.135 107.361 482.425 91.9268 472.652 81.5684C462.867 71.1976 449.54 66.4797 435.455 66.4797V71.4797ZM483.135 127.8H478.135C478.135 155.108 461.085 177.04 434.335 177.04V182.04V187.04C468.065 187.04 488.135 159.052 488.135 127.8H483.135ZM408.735 127.64H403.735C403.735 139.618 407.341 148.854 413.283 155.136C419.204 161.396 427.078 164.32 434.815 164.32V159.32V154.32C429.592 154.32 424.426 152.364 420.547 148.264C416.689 144.186 413.735 137.582 413.735 127.64H408.735ZM434.815 159.32V164.32C444.082 164.32 451.722 159.911 456.889 152.854C461.977 145.905 464.615 136.517 464.615 126.2H459.615H454.615C454.615 134.923 452.373 142.095 448.821 146.946C445.348 151.689 440.588 154.32 434.815 154.32V159.32ZM459.615 126.2H464.615C464.615 116.066 462.458 106.372 457.493 99.0525C452.375 91.5101 444.451 86.7997 434.015 86.7997V91.7997V96.7997C441.019 96.7997 445.895 99.7693 449.217 104.667C452.692 109.788 454.615 117.294 454.615 126.2H459.615ZM434.015 91.7997V86.7997C423.485 86.7997 415.653 91.952 410.676 99.7762C405.84 107.38 403.735 117.375 403.735 127.64H408.735H413.735C413.735 118.545 415.63 110.62 419.114 105.144C422.457 99.8874 427.265 96.7997 434.015 96.7997V91.7997ZM500.755 99.1597L499.239 103.925L499.269 103.934L499.299 103.943L500.755 99.1597ZM511.315 94.1997L507.104 91.5044L507.097 91.5153L511.315 94.1997ZM500.755 99.1597L502.271 94.3951C501.951 94.2932 502.027 94.2544 502.222 94.4478C502.45 94.6751 502.562 94.9423 502.593 95.0805C502.61 95.1559 502.56 95.0017 502.638 94.4914C502.715 93.9885 502.891 93.2918 503.224 92.3614L498.515 90.6797L493.806 88.998C492.932 91.4452 492.192 94.4171 492.837 97.2789C493.622 100.76 496.135 102.937 499.239 103.925L500.755 99.1597ZM498.515 90.6797L503.224 92.3614C504.916 87.6226 506.235 82.05 506.235 77.7197H501.235H496.235C496.235 80.4294 495.314 84.7768 493.806 88.998L498.515 90.6797ZM501.235 77.7197H506.235C506.235 75.6379 505.323 74.0209 504.814 73.1786C504.538 72.7212 504.221 72.2484 503.988 71.8957C503.731 71.507 503.506 71.1626 503.291 70.8007C502.528 69.5211 501.755 67.8362 501.755 64.9197H496.755H491.755C491.755 70.0032 493.222 73.4383 494.699 75.9187C495.044 76.4967 495.379 77.0074 495.647 77.4124C495.939 77.8535 496.112 78.1131 496.256 78.3507C496.587 78.8985 496.235 78.5214 496.235 77.7197H501.235ZM496.755 64.9197H501.755C501.755 62.5529 502.466 61.2193 503.33 60.4284C504.255 59.5824 506.056 58.7197 509.395 58.7197V53.7197V48.7197C504.414 48.7197 499.895 50.0169 496.58 53.051C493.204 56.14 491.755 60.4065 491.755 64.9197H496.755ZM509.395 53.7197V58.7197C511.567 58.7197 515.755 61.5237 515.755 67.7997H520.755H525.755C525.755 57.4357 518.423 48.7197 509.395 48.7197V53.7197ZM520.755 67.7997H515.755C515.755 74.8579 512.037 83.7962 507.104 91.5044L511.315 94.1997L515.526 96.895C520.833 88.6032 525.755 77.7015 525.755 67.7997H520.755ZM511.315 94.1997L507.097 91.5153C506.487 92.4741 505.472 93.3868 504.358 93.9382C503.211 94.5054 502.474 94.4563 502.211 94.3763L500.755 99.1597L499.299 103.943C502.716 104.983 506.139 104.214 508.792 102.902C511.478 101.573 513.903 99.4453 515.533 96.8841L511.315 94.1997ZM615.051 83.7997L618.239 79.9477L618.194 79.91L618.147 79.8733L615.051 83.7997ZM616.651 98.5197L620.556 101.643L620.624 101.558L620.688 101.47L616.651 98.5197ZM601.771 100.44L604.961 96.5896L604.902 96.5403L604.841 96.4929L601.771 100.44ZM604.011 146.52L600.215 143.266L600.094 143.408L599.983 143.558L604.011 146.52ZM618.891 146.2L615.541 149.912L615.595 149.96L615.649 150.006L618.891 146.2ZM617.451 164.76L621.066 168.214L621.086 168.193L621.107 168.172L617.451 164.76ZM582.091 181.4V176.4C569.059 176.4 558.514 172.817 551.207 165.425C543.899 158.031 539.091 146.077 539.091 127.8H534.091H529.091C529.091 147.763 534.364 162.609 544.095 172.455C553.829 182.303 567.283 186.4 582.091 186.4V181.4ZM534.091 127.8H539.091C539.091 110.815 541.944 97.905 548.193 89.323C554.203 81.0694 563.977 75.9997 580.011 75.9997V70.9997V65.9997C561.646 65.9997 548.459 71.97 540.109 83.4364C531.999 94.5744 529.091 110.065 529.091 127.8H534.091ZM580.011 70.9997V75.9997C594.957 75.9997 604.129 81.5552 611.955 87.726L615.051 83.7997L618.147 79.8733C609.333 72.9242 598.025 65.9997 580.011 65.9997V70.9997ZM615.051 83.7997L611.863 87.6517C614.125 89.5233 614.369 93.1678 612.614 95.5696L616.651 98.5197L620.688 101.47C625.013 95.5516 625.258 85.7561 618.239 79.9477L615.051 83.7997ZM616.651 98.5197L612.747 95.3962C612.142 96.1527 610.769 97.1703 609.164 97.5627C607.766 97.9044 606.369 97.7561 604.961 96.5896L601.771 100.44L598.581 104.29C602.773 107.764 607.536 108.255 611.539 107.277C615.333 106.349 618.601 104.087 620.556 101.643L616.651 98.5197ZM601.771 100.44L604.841 96.4929C602.358 94.5619 599.303 91.8112 595.607 89.8587C591.621 87.7531 586.882 86.4797 580.331 86.4797V91.4797V96.4797C585.46 96.4797 588.561 97.4463 590.936 98.7007C593.6 100.108 595.424 101.838 598.702 104.387L601.771 100.44ZM580.331 91.4797V86.4797C571.064 86.4797 563.578 90.0044 558.682 97.3995C554.039 104.413 552.131 114.312 552.131 126.36H557.131H562.131C562.131 115.048 563.983 107.507 567.02 102.92C569.804 98.715 573.919 96.4797 580.331 96.4797V91.4797ZM557.131 126.36H552.131C552.131 138.772 554.712 148.239 560.164 154.642C565.754 161.205 573.6 163.68 582.091 163.68V158.68V153.68C575.543 153.68 570.909 151.835 567.778 148.158C564.511 144.321 562.131 137.628 562.131 126.36H557.131ZM582.091 158.68V163.68C594.59 163.68 603.58 155.547 608.04 149.482L604.011 146.52L599.983 143.558C596.443 148.373 590.072 153.68 582.091 153.68V158.68ZM604.011 146.52L607.808 149.774C608.77 148.651 609.866 147.974 610.849 147.819C611.596 147.701 613.133 147.738 615.541 149.912L618.891 146.2L622.241 142.488C618.09 138.742 613.626 137.259 609.293 137.941C605.197 138.586 602.133 141.029 600.215 143.266L604.011 146.52ZM618.891 146.2L615.649 150.006C617.265 151.383 619.085 155.681 613.796 161.348L617.451 164.76L621.107 168.172C629.257 159.439 629.157 148.377 622.134 142.394L618.891 146.2ZM617.451 164.76L613.836 161.306C610.117 165.198 607.247 168.696 602.664 171.526C598.283 174.231 592.101 176.4 582.091 176.4V181.4V186.4C593.681 186.4 601.739 183.849 607.918 180.034C613.895 176.344 617.905 171.522 621.066 168.214L617.451 164.76ZM652.536 182.84L652.287 177.846L652.237 177.849L652.188 177.852L652.536 182.84ZM640.856 76.4397L645.855 76.5358L645.856 76.5244L640.856 76.4397ZM663.576 76.2797L668.576 76.2882V76.2797H663.576ZM663.416 170.52L658.416 170.512V170.52H663.416ZM652.536 182.84L652.188 177.852C649.781 178.02 648.29 177.383 647.429 176.587C646.588 175.81 645.696 174.279 645.696 171.32H640.696H635.696C635.696 176.361 637.285 180.83 640.643 183.933C643.983 187.017 648.411 188.14 652.884 187.828L652.536 182.84ZM640.696 171.32H645.696C645.696 150.949 645.697 84.7921 645.855 76.5358L640.856 76.4397L635.857 76.3436C635.696 84.7273 635.696 151.051 635.696 171.32H640.696ZM640.856 76.4397L645.856 76.5244C645.93 72.1553 646.729 70.1156 647.494 69.1765C648.044 68.5002 649.163 67.6797 652.376 67.6797V62.6797V57.6797C647.429 57.6797 642.868 59.0191 639.739 62.8629C636.823 66.4438 635.943 71.2841 635.857 76.355L640.856 76.4397ZM652.376 62.6797V67.6797C654.733 67.6797 656.006 68.4072 656.792 69.3404C657.689 70.4062 658.576 72.4921 658.576 76.2797H663.576H668.576C668.576 71.1073 667.383 66.3932 664.441 62.899C661.387 59.2722 657.059 57.6797 652.376 57.6797V62.6797ZM663.576 76.2797L658.576 76.2712L658.416 170.512L663.416 170.52L668.416 170.528L668.576 76.2882L663.576 76.2797ZM663.416 170.52H658.416C658.416 174.274 655.414 177.69 652.287 177.846L652.536 182.84L652.786 187.834C662.458 187.35 668.416 178.286 668.416 170.52H663.416ZM728.229 183.16V178.16C717.841 178.16 708.359 175.214 701.528 169.017C694.79 162.903 690.029 153.079 690.029 138.04H685.029H680.029C680.029 155.321 685.588 168.057 694.809 176.423C703.939 184.706 716.057 188.16 728.229 188.16V183.16ZM685.029 138.04H690.029C690.029 125.41 694.006 115.042 700.589 107.885C707.137 100.765 716.569 96.4797 728.229 96.4797V91.4797V86.4797C713.969 86.4797 701.8 91.795 693.229 101.115C684.691 110.398 680.029 123.31 680.029 138.04H685.029ZM728.229 91.4797V96.4797C739.53 96.4797 748.596 99.5183 754.853 105.776C761.103 112.026 765.309 122.246 765.309 138.2H770.309H775.309C775.309 120.554 770.634 107.414 761.924 98.7042C753.221 90.0011 741.248 86.4797 728.229 86.4797V91.4797ZM770.309 138.2H765.309C765.309 149.94 762.203 159.904 756.267 166.852C750.434 173.68 741.391 178.16 728.229 178.16V183.16V188.16C743.866 188.16 755.863 182.72 763.87 173.348C771.775 164.096 775.309 151.58 775.309 138.2H770.309ZM707.429 137.56H702.429C702.429 145.537 704.743 152.801 709.3 158.159C713.921 163.593 720.572 166.72 728.389 166.72V161.72V156.72C723.406 156.72 719.576 154.807 716.918 151.681C714.195 148.479 712.429 143.663 712.429 137.56H707.429ZM728.389 161.72V166.72C737.311 166.72 743.943 162.985 748.183 157.194C752.27 151.611 753.869 144.511 753.869 137.88H748.869H743.869C743.869 143.089 742.587 147.909 740.114 151.286C737.795 154.455 734.186 156.72 728.389 156.72V161.72ZM748.869 137.88H753.869C753.869 127.982 751.392 120.262 746.489 114.994C741.541 109.678 734.818 107.6 727.909 107.6V112.6V117.6C732.84 117.6 736.596 119.042 739.169 121.806C741.786 124.618 743.869 129.538 743.869 137.88H748.869ZM727.909 112.6V107.6C719.413 107.6 712.762 110.969 708.389 116.8C704.167 122.429 702.429 129.856 702.429 137.56H707.429H712.429C712.429 131.184 713.89 126.131 716.389 122.8C718.736 119.671 722.324 117.6 727.909 117.6V112.6ZM860.106 104.12L856.332 107.399L856.338 107.406L856.343 107.413L860.106 104.12ZM857.866 118.36L855.462 113.976L855.377 114.023L855.294 114.073L857.866 118.36ZM843.146 117.56L839.242 120.683L839.278 120.729L839.315 120.773L843.146 117.56ZM848.426 154.68L845.854 150.393L845.726 150.469L845.603 150.553L848.426 154.68ZM857.706 158.2L853.546 160.973L853.559 160.993L853.572 161.012L857.706 158.2ZM855.786 173.56L852.626 169.686L852.6 169.706L852.575 169.727L855.786 173.56ZM828.586 182.36V177.36C811.819 177.36 789.106 164.294 789.106 137.4H784.106H779.106C779.106 171.306 807.913 187.36 828.586 187.36V182.36ZM784.106 137.4H789.106C789.106 112.609 808.491 95.9997 831.306 95.9997V90.9997V85.9997C803.562 85.9997 779.106 106.511 779.106 137.4H784.106ZM831.306 90.9997V95.9997C837.097 95.9997 841.42 96.7794 845.155 98.4597C848.887 100.138 852.41 102.885 856.332 107.399L860.106 104.12L863.881 100.841C859.323 95.5944 854.686 91.7814 849.257 89.3397C843.833 86.9 837.996 85.9997 831.306 85.9997V90.9997ZM860.106 104.12L856.343 107.413C856.882 108.028 857.364 109.372 857.149 111.009C856.94 112.596 856.205 113.568 855.462 113.976L857.866 118.36L860.27 122.744C864.487 120.432 866.552 116.204 867.064 112.311C867.569 108.468 866.69 104.052 863.869 100.827L860.106 104.12ZM857.866 118.36L855.294 114.073C853.282 115.279 851.507 115.87 850.149 115.901C849.055 115.927 848.047 115.623 846.977 114.347L843.146 117.56L839.315 120.773C842.405 124.457 846.357 125.993 850.383 125.899C854.146 125.81 857.65 124.321 860.439 122.647L857.866 118.36ZM843.146 117.56L847.051 114.437C843.545 110.054 838.27 106.8 829.706 106.8V111.8V116.8C835.222 116.8 837.628 118.666 839.242 120.683L843.146 117.56ZM829.706 111.8V106.8C822.974 106.8 816.04 108.987 810.763 114.113C805.432 119.291 802.306 126.964 802.306 136.92H807.306H812.306C812.306 129.116 814.701 124.229 817.73 121.287C820.812 118.293 825.078 116.8 829.706 116.8V111.8ZM807.306 136.92H802.306C802.306 144.717 804.667 152.046 810.274 157.397C815.858 162.726 823.976 165.44 834.186 165.44V160.44V155.44C825.677 155.44 820.355 153.194 817.178 150.163C814.025 147.154 812.306 142.723 812.306 136.92H807.306ZM834.186 160.44V165.44C843.612 165.44 848.754 160.514 851.25 158.807L848.426 154.68L845.603 150.553C842.019 153.006 839.8 155.44 834.186 155.44V160.44ZM848.426 154.68L850.999 158.967C851.093 158.911 851.155 158.887 851.185 158.877C851.214 158.868 851.228 158.867 851.231 158.867C851.235 158.866 851.248 158.866 851.277 158.87C851.306 158.875 851.363 158.888 851.449 158.922C851.831 159.075 852.633 159.604 853.546 160.973L857.706 158.2L861.867 155.427C860.22 152.956 857.982 150.765 855.163 149.638C852.161 148.437 848.838 148.602 845.854 150.393L848.426 154.68ZM857.706 158.2L853.572 161.012C854.518 162.403 855.079 163.997 855.047 165.41C855.021 166.609 854.577 168.094 852.626 169.686L855.786 173.56L858.947 177.434C863.076 174.066 864.951 169.871 865.045 165.63C865.134 161.603 863.615 157.997 861.841 155.388L857.706 158.2ZM855.786 173.56L852.575 169.727C849.713 172.125 847.387 173.885 844.101 175.157C840.778 176.444 836.119 177.36 828.586 177.36V182.36V187.36C836.893 187.36 842.874 186.356 847.712 184.483C852.585 182.595 855.939 179.955 858.997 177.393L855.786 173.56ZM890.598 182.84L890.348 177.846L890.299 177.849L890.25 177.852L890.598 182.84ZM878.918 77.7197L883.917 77.8158V77.8044L878.918 77.7197ZM901.158 119.64H896.158V130.59L904.432 123.418L901.158 119.64ZM934.598 94.6797L931.987 90.4154L931.964 90.4292L931.942 90.4433L934.598 94.6797ZM951.398 96.7597L947.149 99.3965L947.158 99.4102L947.166 99.4238L951.398 96.7597ZM946.438 110.52L949.468 114.497L949.471 114.495L946.438 110.52ZM920.838 131.16L917.702 127.265L917.687 127.278L917.671 127.29L920.838 131.16ZM921.158 135.32L924.421 131.532L924.411 131.524L921.158 135.32ZM951.878 164.92L955.809 161.831L955.769 161.78L955.728 161.731L951.878 164.92ZM935.238 178.52L931.648 182.001L931.654 182.007L935.238 178.52ZM900.998 147L904.145 143.115L895.998 136.514V147H900.998ZM890.598 182.84L890.25 177.852C887.843 178.02 886.351 177.383 885.49 176.587C884.649 175.81 883.758 174.279 883.758 171.32H878.758H873.758C873.758 176.361 875.346 180.83 878.705 183.933C882.044 187.017 886.472 188.14 890.945 187.828L890.598 182.84ZM878.758 171.32H883.758C883.758 150.949 883.758 86.0721 883.917 77.8158L878.918 77.7197L873.918 77.6236C873.757 86.0073 873.758 151.051 873.758 171.32H878.758ZM878.918 77.7197L883.917 77.8044C883.992 73.3451 884.741 71.3138 885.465 70.3934C885.938 69.7931 886.956 68.9597 890.278 68.9597V63.9597V58.9597C885.279 58.9597 880.697 60.2863 877.61 64.206C874.774 67.8056 874.003 72.6543 873.918 77.635L878.918 77.7197ZM890.278 63.9597V68.9597C892.512 68.9597 893.685 69.6559 894.423 70.5603C895.292 71.625 896.158 73.7313 896.158 77.5597H901.158H906.158C906.158 72.4281 905.023 67.7344 902.172 64.2391C899.19 60.5835 894.923 58.9597 890.278 58.9597V63.9597ZM901.158 77.5597H896.158V119.64H901.158H906.158V77.5597H901.158ZM901.158 119.64L904.432 123.418C913.869 115.24 926.783 105.48 937.253 98.9161L934.598 94.6797L931.942 90.4433C920.972 97.3201 907.646 107.4 897.883 115.862L901.158 119.64ZM934.598 94.6797L937.208 98.944C940.349 97.0212 942.576 96.8372 943.93 97.0929C945.263 97.3446 946.364 98.1312 947.149 99.3965L951.398 96.7597L955.646 94.1229C953.551 90.7482 950.172 88.0947 945.785 87.2665C941.419 86.4422 936.686 87.5381 931.987 90.4154L934.598 94.6797ZM951.398 96.7597L947.166 99.4238C947.752 100.354 947.789 101.044 947.503 101.854C947.131 102.908 946.03 104.541 943.404 106.545L946.438 110.52L949.471 114.495C952.925 111.859 955.664 108.772 956.932 105.186C958.286 101.356 957.763 97.486 955.629 94.0956L951.398 96.7597ZM946.438 110.52L943.407 106.543C936.623 111.712 924.128 122.094 917.702 127.265L920.838 131.16L923.973 135.055C930.667 129.666 942.812 119.568 949.468 114.497L946.438 110.52ZM920.838 131.16L917.671 127.29C917.148 127.718 916.417 128.354 915.81 129.174C915.151 130.066 914.443 131.443 914.5 133.221C914.555 134.922 915.29 136.22 915.899 137.041C916.5 137.852 917.238 138.546 917.904 139.116L921.158 135.32L924.411 131.524C923.957 131.134 923.875 131.008 923.931 131.084C923.995 131.17 924.46 131.818 924.495 132.899C924.532 134.057 924.054 134.844 923.85 135.121C923.698 135.326 923.647 135.322 924.004 135.03L920.838 131.16ZM921.158 135.32L917.894 139.108C928.338 148.106 939.857 158.244 948.027 168.109L951.878 164.92L955.728 161.731C946.938 151.116 934.777 140.454 924.421 131.532L921.158 135.32ZM951.878 164.92L947.946 168.009C949.844 170.424 950.071 172.316 949.888 173.588C949.687 174.987 948.898 176.235 947.893 177.065L951.078 180.92L954.262 184.775C956.937 182.565 959.188 179.173 959.787 175.012C960.404 170.724 959.192 166.136 955.809 161.831L951.878 164.92ZM951.078 180.92L947.893 177.065C946.439 178.266 942.97 179.297 938.821 175.033L935.238 178.52L931.654 182.007C939.025 189.583 948.356 189.654 954.262 184.775L951.078 180.92ZM935.238 178.52L938.827 175.039C933.629 169.679 916.996 153.526 904.145 143.115L900.998 147L897.85 150.885C910.279 160.954 926.606 176.801 931.648 182.001L935.238 178.52ZM900.998 147H895.998V170.52H900.998H905.998V147H900.998ZM900.998 170.52H895.998C895.998 174.588 893.213 177.703 890.348 177.846L890.598 182.84L890.847 187.834C900.782 187.337 905.998 177.972 905.998 170.52H900.998Z" fill="white"/>
</g>
<path d="M54.9109 170.16C48.1909 170.16 43.3909 165.84 43.3909 158.16C43.3909 146.32 43.0709 106.96 43.2309 83.2797H19.0709C10.9109 83.2797 5.63086 79.4397 5.63086 72.8797C5.63086 67.2797 9.31086 61.9997 19.0709 61.5197C33.1509 60.7197 74.4309 61.0397 87.8709 61.3597C99.0709 61.6797 101.791 66.6397 101.791 72.3997C101.791 77.9997 97.3109 83.1197 87.8709 83.1197H66.9109C67.0709 106.16 67.2309 149.36 67.0709 158C66.9109 165.36 61.3109 170.16 54.9109 170.16ZM121.923 171.6C116.803 171.92 110.403 167.92 110.403 159.92C110.403 139.6 110.563 99.2797 110.563 93.5197C110.723 81.0397 115.683 77.3597 122.082 77.3597C127.683 77.3597 131.683 80.0797 133.123 86.3197C140.163 81.6797 145.602 79.5997 152.643 79.5997C161.123 79.5997 167.843 83.5997 172.803 93.5197C175.843 99.4397 174.883 104.88 170.883 107.12C167.043 109.52 163.203 110 159.523 106.16C156.643 103.44 154.883 101.52 147.683 101.52C142.563 101.52 138.083 103.6 133.763 107.6C133.763 125.36 133.603 142.8 133.603 158.64C133.603 166.96 127.203 171.28 121.923 171.6ZM202.31 171.6C197.35 171.92 190.95 167.92 190.95 159.92C190.95 139.6 191.11 110.64 191.11 104.88C191.27 92.2397 196.23 88.7197 202.63 88.7197C209.83 88.7197 214.15 93.1997 214.15 104.24C214.15 126.96 213.99 138.48 213.99 158.64C213.99 166.96 207.75 171.28 202.31 171.6ZM188.39 64.0797C188.39 55.4397 193.51 50.3197 203.11 50.3197C212.07 50.3197 217.67 55.5997 217.67 64.2397C217.67 71.4397 213.35 77.3597 203.11 77.3597C192.87 77.3597 188.39 72.7197 188.39 64.0797ZM252.384 201.04C245.664 201.04 241.184 199.12 241.024 188.88C240.864 179.12 240.864 102.32 240.864 95.2797C240.864 88.3997 242.304 85.9997 246.624 84.3997C254.624 81.3597 261.504 79.5997 275.264 79.5997C287.584 79.5997 297.024 83.2797 305.024 89.8397C312.864 96.2397 316.224 106.8 316.224 120.88C316.224 148.56 297.984 163.6 279.104 164.24C272.544 164.4 266.784 163.6 262.624 162.64C262.464 172.24 262.464 181.2 262.464 188.56C262.464 196.56 257.024 201.04 252.384 201.04ZM262.624 140.72C266.304 142.16 271.104 143.44 276.384 143.44C290.144 143.44 294.304 132.72 294.304 120.56C294.304 112.4 292.384 105.68 286.464 102.48C281.824 99.9197 274.144 99.4397 268.864 100.08C264.224 100.72 262.784 102.32 262.784 109.2C262.784 118.8 262.784 129.68 262.624 140.72ZM418.335 169.04C395.135 169.04 367.775 149.36 367.775 114.8C367.775 88.7197 381.855 58.4797 419.455 58.4797C445.375 58.4797 467.135 75.7597 467.135 114.8C467.135 144.08 448.575 169.04 418.335 169.04ZM392.735 114.64C392.735 136.56 405.855 146.32 418.815 146.32C433.855 146.32 443.615 132.24 443.615 113.2C443.615 94.1597 435.455 78.7997 418.015 78.7997C400.735 78.7997 392.735 95.2797 392.735 114.64ZM484.755 86.1597C481.235 85.0397 480.915 82.1597 482.515 77.6797C484.115 73.1997 485.235 68.2397 485.235 64.7197C485.235 62.1597 480.755 59.9197 480.755 51.9197C480.755 45.0397 485.075 40.7197 493.395 40.7197C498.995 40.7197 504.755 46.4797 504.755 54.7997C504.755 63.2797 500.435 73.1997 495.315 81.1997C493.075 84.7197 488.435 87.2797 484.755 86.1597ZM566.091 168.4C538.251 168.4 518.091 153.04 518.091 114.8C518.091 80.0797 529.611 57.9997 564.011 57.9997C580.491 57.9997 590.731 64.2397 599.051 70.7997C603.691 74.6397 603.691 81.3597 600.651 85.5197C598.091 88.7197 591.371 92.0797 585.771 87.4397C580.011 82.9597 576.011 78.4797 564.331 78.4797C548.651 78.4797 541.131 89.9997 541.131 113.36C541.131 137.04 551.051 145.68 566.091 145.68C576.331 145.68 584.011 138.96 588.011 133.52C590.891 130.16 596.331 127.28 602.891 133.2C607.211 136.88 608.171 144.56 601.451 151.76C594.571 158.96 587.691 168.4 566.091 168.4ZM636.536 169.84C629.656 170.32 624.696 166.32 624.696 158.32C624.696 138 624.696 71.7597 624.856 63.4397C625.016 53.9997 628.216 49.6797 636.376 49.6797C643.416 49.6797 647.576 54.3197 647.576 63.2797L647.416 157.52C647.416 163.28 642.936 169.52 636.536 169.84ZM712.229 170.16C689.669 170.16 669.029 157.36 669.029 125.04C669.029 97.6797 686.309 78.4797 712.229 78.4797C736.549 78.4797 754.309 91.5997 754.309 125.2C754.309 150.32 741.029 170.16 712.229 170.16ZM691.429 124.56C691.429 138.64 699.589 148.72 712.389 148.72C727.109 148.72 732.869 136.72 732.869 124.88C732.869 106.64 723.749 99.5997 711.909 99.5997C697.829 99.5997 691.429 110.48 691.429 124.56ZM812.586 169.36C793.866 169.36 768.106 154.8 768.106 124.4C768.106 96.5597 790.026 77.9997 815.306 77.9997C827.786 77.9997 835.626 81.3597 844.106 91.1197C847.466 94.9597 846.826 102.64 841.866 105.36C837.066 108.24 831.306 109.52 827.146 104.56C824.586 101.36 820.746 98.7997 813.706 98.7997C802.346 98.7997 791.306 106.16 791.306 123.92C791.306 137.52 799.466 147.44 818.186 147.44C825.706 147.44 829.386 143.76 832.426 141.68C835.626 139.76 839.146 141.36 841.706 145.2C844.426 149.2 845.866 155.6 839.786 160.56C833.866 165.52 828.426 169.36 812.586 169.36ZM874.598 169.84C867.718 170.32 862.758 166.32 862.758 158.32C862.758 138 862.758 73.0397 862.918 64.7197C863.078 55.2797 865.958 50.9597 874.278 50.9597C881.158 50.9597 885.158 55.5997 885.158 64.5597V106.64C894.758 98.3197 907.878 88.3997 918.598 81.6797C926.438 76.8797 932.518 79.1197 935.398 83.7597C938.118 88.0797 936.518 92.8797 930.438 97.5197C923.718 102.64 911.398 112.88 904.838 118.16C903.078 119.6 902.918 120.4 905.158 122.32C915.558 131.28 927.398 141.68 935.878 151.92C941.158 158.64 938.758 164.88 935.078 167.92C931.398 170.96 924.998 171.44 919.238 165.52C914.118 160.24 897.638 144.24 884.998 134V157.52C884.998 163.28 880.998 169.52 874.598 169.84Z" fill="#C8ADFF"/>
<mask id="mask1_400_2260" style="mask-type:luminance" maskUnits="userSpaceOnUse" x="0" y="35" width="944" height="172">
<path d="M944 35H0V207H944V35Z" fill="white"/>
<path d="M54.9109 170.16C48.1909 170.16 43.3909 165.84 43.3909 158.16C43.3909 146.32 43.0709 106.96 43.2309 83.2797H19.0709C10.9109 83.2797 5.63086 79.4397 5.63086 72.8797C5.63086 67.2797 9.31086 61.9997 19.0709 61.5197C33.1509 60.7197 74.4309 61.0397 87.8709 61.3597C99.0709 61.6797 101.791 66.6397 101.791 72.3997C101.791 77.9997 97.3109 83.1197 87.8709 83.1197H66.9109C67.0709 106.16 67.2309 149.36 67.0709 158C66.9109 165.36 61.3109 170.16 54.9109 170.16ZM121.923 171.6C116.803 171.92 110.403 167.92 110.403 159.92C110.403 139.6 110.563 99.2797 110.563 93.5197C110.723 81.0397 115.683 77.3597 122.082 77.3597C127.683 77.3597 131.683 80.0797 133.123 86.3197C140.163 81.6797 145.602 79.5997 152.643 79.5997C161.123 79.5997 167.843 83.5997 172.803 93.5197C175.843 99.4397 174.883 104.88 170.883 107.12C167.043 109.52 163.203 110 159.523 106.16C156.643 103.44 154.883 101.52 147.683 101.52C142.563 101.52 138.083 103.6 133.763 107.6C133.763 125.36 133.603 142.8 133.603 158.64C133.603 166.96 127.203 171.28 121.923 171.6ZM202.31 171.6C197.35 171.92 190.95 167.92 190.95 159.92C190.95 139.6 191.11 110.64 191.11 104.88C191.27 92.2397 196.23 88.7197 202.63 88.7197C209.83 88.7197 214.15 93.1997 214.15 104.24C214.15 126.96 213.99 138.48 213.99 158.64C213.99 166.96 207.75 171.28 202.31 171.6ZM188.39 64.0797C188.39 55.4397 193.51 50.3197 203.11 50.3197C212.07 50.3197 217.67 55.5997 217.67 64.2397C217.67 71.4397 213.35 77.3597 203.11 77.3597C192.87 77.3597 188.39 72.7197 188.39 64.0797ZM252.384 201.04C245.664 201.04 241.184 199.12 241.024 188.88C240.864 179.12 240.864 102.32 240.864 95.2797C240.864 88.3997 242.304 85.9997 246.624 84.3997C254.624 81.3597 261.504 79.5997 275.264 79.5997C287.584 79.5997 297.024 83.2797 305.024 89.8397C312.864 96.2397 316.224 106.8 316.224 120.88C316.224 148.56 297.984 163.6 279.104 164.24C272.544 164.4 266.784 163.6 262.624 162.64C262.464 172.24 262.464 181.2 262.464 188.56C262.464 196.56 257.024 201.04 252.384 201.04ZM262.624 140.72C266.304 142.16 271.104 143.44 276.384 143.44C290.144 143.44 294.304 132.72 294.304 120.56C294.304 112.4 292.384 105.68 286.464 102.48C281.824 99.9197 274.144 99.4397 268.864 100.08C264.224 100.72 262.784 102.32 262.784 109.2C262.784 118.8 262.784 129.68 262.624 140.72ZM418.335 169.04C395.135 169.04 367.775 149.36 367.775 114.8C367.775 88.7197 381.855 58.4797 419.455 58.4797C445.375 58.4797 467.135 75.7597 467.135 114.8C467.135 144.08 448.575 169.04 418.335 169.04ZM392.735 114.64C392.735 136.56 405.855 146.32 418.815 146.32C433.855 146.32 443.615 132.24 443.615 113.2C443.615 94.1597 435.455 78.7997 418.015 78.7997C400.735 78.7997 392.735 95.2797 392.735 114.64ZM484.755 86.1597C481.235 85.0397 480.915 82.1597 482.515 77.6797C484.115 73.1997 485.235 68.2397 485.235 64.7197C485.235 62.1597 480.755 59.9197 480.755 51.9197C480.755 45.0397 485.075 40.7197 493.395 40.7197C498.995 40.7197 504.755 46.4797 504.755 54.7997C504.755 63.2797 500.435 73.1997 495.315 81.1997C493.075 84.7197 488.435 87.2797 484.755 86.1597ZM566.091 168.4C538.251 168.4 518.091 153.04 518.091 114.8C518.091 80.0797 529.611 57.9997 564.011 57.9997C580.491 57.9997 590.731 64.2397 599.051 70.7997C603.691 74.6397 603.691 81.3597 600.651 85.5197C598.091 88.7197 591.371 92.0797 585.771 87.4397C580.011 82.9597 576.011 78.4797 564.331 78.4797C548.651 78.4797 541.131 89.9997 541.131 113.36C541.131 137.04 551.051 145.68 566.091 145.68C576.331 145.68 584.011 138.96 588.011 133.52C590.891 130.16 596.331 127.28 602.891 133.2C607.211 136.88 608.171 144.56 601.451 151.76C594.571 158.96 587.691 168.4 566.091 168.4ZM636.536 169.84C629.656 170.32 624.696 166.32 624.696 158.32C624.696 138 624.696 71.7597 624.856 63.4397C625.016 53.9997 628.216 49.6797 636.376 49.6797C643.416 49.6797 647.576 54.3197 647.576 63.2797L647.416 157.52C647.416 163.28 642.936 169.52 636.536 169.84ZM712.229 170.16C689.669 170.16 669.029 157.36 669.029 125.04C669.029 97.6797 686.309 78.4797 712.229 78.4797C736.549 78.4797 754.309 91.5997 754.309 125.2C754.309 150.32 741.029 170.16 712.229 170.16ZM691.429 124.56C691.429 138.64 699.589 148.72 712.389 148.72C727.109 148.72 732.869 136.72 732.869 124.88C732.869 106.64 723.749 99.5997 711.909 99.5997C697.829 99.5997 691.429 110.48 691.429 124.56ZM812.586 169.36C793.866 169.36 768.106 154.8 768.106 124.4C768.106 96.5597 790.026 77.9997 815.306 77.9997C827.786 77.9997 835.626 81.3597 844.106 91.1197C847.466 94.9597 846.826 102.64 841.866 105.36C837.066 108.24 831.306 109.52 827.146 104.56C824.586 101.36 820.746 98.7997 813.706 98.7997C802.346 98.7997 791.306 106.16 791.306 123.92C791.306 137.52 799.466 147.44 818.186 147.44C825.706 147.44 829.386 143.76 832.426 141.68C835.626 139.76 839.146 141.36 841.706 145.2C844.426 149.2 845.866 155.6 839.786 160.56C833.866 165.52 828.426 169.36 812.586 169.36ZM874.598 169.84C867.718 170.32 862.758 166.32 862.758 158.32C862.758 138 862.758 73.0397 862.918 64.7197C863.078 55.2797 865.958 50.9597 874.278 50.9597C881.158 50.9597 885.158 55.5997 885.158 64.5597V106.64C894.758 98.3197 907.878 88.3997 918.598 81.6797C926.438 76.8797 932.518 79.1197 935.398 83.7597C938.118 88.0797 936.518 92.8797 930.438 97.5197C923.718 102.64 911.398 112.88 904.838 118.16C903.078 119.6 902.918 120.4 905.158 122.32C915.558 131.28 927.398 141.68 935.878 151.92C941.158 158.64 938.758 164.88 935.078 167.92C931.398 170.96 924.998 171.44 919.238 165.52C914.118 160.24 897.638 144.24 884.998 134V157.52C884.998 163.28 880.998 169.52 874.598 169.84Z" fill="black"/>
</mask>
<g mask="url(#mask1_400_2260)">
<path d="M43.2309 83.2797L48.2307 83.3135L48.2647 78.2797H43.2309V83.2797ZM19.0709 61.5197L19.3165 66.5137L19.3355 66.5127L19.3545 66.5116L19.0709 61.5197ZM87.8709 61.3597L88.0137 56.3617L88.0018 56.3614L87.9899 56.3611L87.8709 61.3597ZM66.9109 83.1197V78.1197H61.876L61.911 83.1544L66.9109 83.1197ZM67.0709 158L72.0697 158.109L72.0698 158.101L72.07 158.093L67.0709 158ZM54.9109 170.16V165.16C52.6313 165.16 51.1082 164.446 50.1664 163.504C49.2352 162.573 48.3909 160.937 48.3909 158.16H43.3909H38.3909C38.3909 163.063 39.9465 167.427 43.0953 170.576C46.2335 173.714 50.4704 175.16 54.9109 175.16V170.16ZM43.3909 158.16H48.3909C48.3909 146.224 48.0708 106.989 48.2307 83.3135L43.2309 83.2797L38.231 83.2459C38.0709 106.931 38.3909 146.416 38.3909 158.16H43.3909ZM43.2309 83.2797V78.2797H19.0709V83.2797V88.2797H43.2309V83.2797ZM19.0709 83.2797V78.2797C15.7012 78.2797 13.5254 77.4786 12.318 76.5602C11.2702 75.7631 10.6309 74.6606 10.6309 72.8797H5.63086H0.630859C0.630859 77.6588 2.63156 81.7563 6.26372 84.5192C9.73634 87.1608 14.2805 88.2797 19.0709 88.2797V83.2797ZM5.63086 72.8797H10.6309C10.6309 71.1922 11.1628 69.8497 12.1758 68.8651C13.2121 67.8578 15.2855 66.7119 19.3165 66.5137L19.0709 61.5197L18.8252 56.5257C13.0962 56.8075 8.4496 58.5415 5.20595 61.6943C1.93891 64.8697 0.630859 68.9672 0.630859 72.8797H5.63086ZM19.0709 61.5197L19.3545 66.5116C33.2076 65.7245 74.2999 66.038 87.7518 66.3583L87.8709 61.3597L87.9899 56.3611C74.5618 56.0414 33.0942 55.7148 18.7872 56.5277L19.0709 61.5197ZM87.8709 61.3597L87.7281 66.3577C92.7188 66.5002 94.7516 67.6615 95.5653 68.4439C96.2935 69.144 96.7909 70.2599 96.7909 72.3997H101.791H106.791C106.791 68.7794 105.929 64.5353 102.497 61.2355C99.1501 58.0179 94.2229 56.5391 88.0137 56.3617L87.8709 61.3597ZM101.791 72.3997H96.7909C96.7909 73.8108 96.2556 75.0831 95.1088 76.0704C93.9266 77.0881 91.7042 78.1197 87.8709 78.1197V83.1197V88.1197C93.4775 88.1197 98.2151 86.5913 101.633 83.649C105.086 80.6763 106.791 76.5886 106.791 72.3997H101.791ZM87.8709 83.1197V78.1197H66.9109V83.1197V88.1197H87.8709V83.1197ZM66.9109 83.1197L61.911 83.1544C62.0712 106.228 62.2302 149.348 62.0717 157.907L67.0709 158L72.07 158.093C72.2315 149.372 72.0705 106.092 71.9107 83.085L66.9109 83.1197ZM67.0709 158L62.072 157.891C61.9736 162.42 58.706 165.16 54.9109 165.16V170.16V175.16C63.9157 175.16 71.8481 168.3 72.0697 158.109L67.0709 158ZM121.923 171.6L121.62 166.609L121.611 166.61L121.923 171.6ZM110.563 93.5197L105.563 93.4556V93.4876V93.5197H110.563ZM133.123 86.3197L128.251 87.444L129.868 94.453L135.874 90.4945L133.123 86.3197ZM172.803 93.5197L168.33 95.7558L168.342 95.7798L168.355 95.8037L172.803 93.5197ZM170.883 107.12L168.439 102.757L168.335 102.816L168.233 102.88L170.883 107.12ZM159.523 106.16L163.132 102.7L163.046 102.61L162.956 102.525L159.523 106.16ZM133.763 107.6L130.365 103.931L128.763 105.415V107.6H133.763ZM121.923 171.6L121.611 166.61C119.02 166.772 115.403 164.697 115.403 159.92H110.403H105.403C105.403 171.143 114.585 177.068 122.234 176.59L121.923 171.6ZM110.403 159.92H115.403C115.403 149.769 115.442 134.616 115.482 121.275C115.522 107.946 115.563 96.4097 115.563 93.5197H110.563H105.563C105.563 96.3897 105.523 107.894 105.483 121.245C105.443 134.584 105.403 149.751 105.403 159.92H110.403ZM110.563 93.5197L115.562 93.5838C115.635 87.8579 116.821 85.1674 117.829 83.9545C118.663 82.9495 119.877 82.3597 122.082 82.3597V77.3597V72.3597C117.888 72.3597 113.422 73.6098 110.136 77.5649C107.024 81.312 105.65 86.7015 105.563 93.4556L110.563 93.5197ZM122.082 77.3597V82.3597C124.078 82.3597 125.307 82.8366 126.096 83.4487C126.867 84.048 127.726 85.1717 128.251 87.444L133.123 86.3197L137.994 85.1954C137.079 81.2277 135.218 77.8714 132.229 75.5507C129.258 73.2428 125.687 72.3597 122.082 72.3597V77.3597ZM133.123 86.3197L135.874 90.4945C142.396 86.1961 146.885 84.5997 152.643 84.5997V79.5997V74.5997C144.32 74.5997 137.929 77.1633 130.371 82.1449L133.123 86.3197ZM152.643 79.5997V84.5997C156.054 84.5997 158.853 85.3893 161.269 86.9999C163.725 88.6372 166.13 91.3543 168.33 95.7558L172.803 93.5197L177.275 91.2836C174.515 85.7651 171.08 81.5222 166.816 78.6794C162.512 75.8101 157.711 74.5997 152.643 74.5997V79.5997ZM172.803 93.5197L168.355 95.8037C169.513 98.0595 169.707 99.8382 169.539 100.952C169.384 101.973 168.952 102.471 168.439 102.757L170.883 107.12L173.326 111.483C180.739 107.331 180.873 98.2898 177.25 91.2357L172.803 93.5197ZM170.883 107.12L168.233 102.88C166.754 103.804 165.826 103.999 165.3 103.982C164.948 103.971 164.248 103.865 163.132 102.7L159.523 106.16L155.913 109.62C158.477 112.295 161.537 113.869 164.985 113.978C168.259 114.081 171.171 112.836 173.533 111.36L170.883 107.12ZM159.523 106.16L162.956 102.525C161.682 101.322 159.935 99.5413 157.395 98.3162C154.769 97.0497 151.699 96.5197 147.683 96.5197V101.52V106.52C150.866 106.52 152.276 106.95 153.05 107.323C153.91 107.738 154.483 108.278 156.089 109.795L159.523 106.16ZM147.683 101.52V96.5197C141.006 96.5197 135.366 99.3008 130.365 103.931L133.763 107.6L137.16 111.269C140.799 107.899 144.119 106.52 147.683 106.52V101.52ZM133.763 107.6H128.763C128.763 116.467 128.723 125.255 128.683 133.817C128.643 142.373 128.603 150.706 128.603 158.64H133.603H138.603C138.603 150.734 138.642 142.427 138.682 133.863C138.722 125.305 138.763 116.493 138.763 107.6H133.763ZM133.603 158.64H128.603C128.603 163.846 124.758 166.419 121.62 166.609L121.923 171.6L122.225 176.591C129.647 176.141 138.603 170.074 138.603 158.64H133.603ZM202.31 171.6L202.016 166.609H202.002L201.988 166.61L202.31 171.6ZM191.11 104.88L186.11 104.817V104.848V104.88H191.11ZM202.31 171.6L201.988 166.61C199.615 166.763 195.95 164.745 195.95 159.92H190.95H185.95C185.95 171.095 195.085 177.077 202.632 176.59L202.31 171.6ZM190.95 159.92H195.95C195.95 149.77 195.99 137.459 196.03 126.959C196.07 116.473 196.11 107.773 196.11 104.88H191.11H186.11C186.11 107.747 186.07 116.407 186.03 126.921C185.99 137.421 185.95 149.75 185.95 159.92H190.95ZM191.11 104.88L196.11 104.943C196.183 99.1196 197.376 96.449 198.363 95.2698C199.173 94.3029 200.368 93.7197 202.63 93.7197V88.7197V83.7197C198.492 83.7197 194.007 84.8965 190.697 88.8496C187.564 92.5904 186.197 97.9998 186.11 104.817L191.11 104.88ZM202.63 88.7197V93.7197C205.129 93.7197 206.375 94.4402 207.17 95.444C208.146 96.6762 209.15 99.232 209.15 104.24H214.15H219.15C219.15 98.2074 217.994 93.0032 215.01 89.2354C211.845 85.2392 207.331 83.7197 202.63 83.7197V88.7197ZM214.15 104.24H209.15C209.15 115.587 209.11 124.137 209.07 132.376C209.03 140.615 208.99 148.546 208.99 158.64H213.99H218.99C218.99 148.574 219.03 140.665 219.07 132.424C219.11 124.183 219.15 115.613 219.15 104.24H214.15ZM213.99 158.64H208.99C208.99 163.888 205.259 166.418 202.016 166.609L202.31 171.6L202.604 176.591C210.241 176.142 218.99 170.032 218.99 158.64H213.99ZM188.39 64.0797H193.39C193.39 60.7513 194.352 58.766 195.597 57.5818C196.876 56.3644 199.162 55.3197 203.11 55.3197V50.3197V45.3197C197.458 45.3197 192.384 46.835 188.703 50.3376C184.988 53.8734 183.39 58.7681 183.39 64.0797H188.39ZM203.11 50.3197V55.3197C206.617 55.3197 208.915 56.3393 210.302 57.6604C211.659 58.9534 212.67 61.0317 212.67 64.2397H217.67H222.67C222.67 58.8077 220.881 53.926 217.198 50.419C213.545 46.9401 208.563 45.3197 203.11 45.3197V50.3197ZM217.67 64.2397H212.67C212.67 66.8601 211.897 68.7516 210.68 69.9791C209.487 71.1819 207.26 72.3597 203.11 72.3597V77.3597V82.3597C209.2 82.3597 214.253 80.5775 217.78 77.0203C221.283 73.4878 222.67 68.8193 222.67 64.2397H217.67ZM203.11 77.3597V72.3597C198.642 72.3597 196.428 71.3366 195.322 70.3044C194.285 69.3369 193.39 67.5793 193.39 64.0797H188.39H183.39C183.39 69.2201 184.735 74.1025 188.498 77.615C192.192 81.0628 197.338 82.3597 203.11 82.3597V77.3597ZM241.024 188.88L246.023 188.802V188.798L241.024 188.88ZM246.624 84.3997L248.36 89.0884L248.38 89.0811L248.4 89.0736L246.624 84.3997ZM305.024 89.8397L301.853 93.706L301.862 93.713L305.024 89.8397ZM279.104 164.24L279.226 169.239L279.249 169.238L279.273 169.237L279.104 164.24ZM262.624 162.64L263.748 157.768L257.727 156.379L257.624 162.557L262.624 162.64ZM262.624 140.72L257.624 140.648L257.574 144.113L260.802 145.376L262.624 140.72ZM286.464 102.48L284.048 106.858L284.067 106.868L284.086 106.879L286.464 102.48ZM268.864 100.08L268.262 95.116L268.221 95.121L268.181 95.1266L268.864 100.08ZM252.384 201.04V196.04C249.263 196.04 248.094 195.533 247.566 195.063C247.131 194.676 246.094 193.366 246.023 188.802L241.024 188.88L236.024 188.958C236.113 194.634 237.397 199.404 240.922 202.537C244.353 205.587 248.784 206.04 252.384 206.04V201.04ZM241.024 188.88L246.023 188.798C245.864 179.092 245.864 102.362 245.864 95.2797H240.864H235.864C235.864 102.278 235.864 179.148 236.024 188.962L241.024 188.88ZM240.864 95.2797H245.864C245.864 92.0031 246.245 90.7495 246.519 90.2428C246.626 90.0469 246.824 89.6576 248.36 89.0884L246.624 84.3997L244.887 79.711C242.104 80.7418 239.422 82.3525 237.728 85.4766C236.203 88.2898 235.864 91.6763 235.864 95.2797H240.864ZM246.624 84.3997L248.4 89.0736C255.839 86.2467 262.118 84.5997 275.264 84.5997V79.5997V74.5997C260.89 74.5997 253.408 76.4727 244.848 79.7258L246.624 84.3997ZM275.264 79.5997V84.5997C286.443 84.5997 294.759 87.8889 301.853 93.706L305.024 89.8397L308.194 85.9734C299.288 78.6705 288.724 74.5997 275.264 74.5997V79.5997ZM305.024 89.8397L301.862 93.713C308 98.7234 311.224 107.43 311.224 120.88H316.224H321.224C321.224 106.17 317.728 93.756 308.186 85.9664L305.024 89.8397ZM316.224 120.88H311.224C311.224 145.956 295.03 158.697 278.934 159.243L279.104 164.24L279.273 169.237C300.937 168.503 321.224 151.164 321.224 120.88H316.224ZM279.104 164.24L278.982 159.241C272.882 159.39 267.542 158.644 263.748 157.768L262.624 162.64L261.499 167.512C266.026 168.556 272.205 169.41 279.226 169.239L279.104 164.24ZM262.624 162.64L257.624 162.557C257.464 172.204 257.464 181.203 257.464 188.56H262.464H267.464C267.464 181.197 267.464 172.276 267.623 162.723L262.624 162.64ZM262.464 188.56H257.464C257.464 194.225 253.854 196.04 252.384 196.04V201.04V206.04C260.194 206.04 267.464 198.895 267.464 188.56H262.464ZM262.624 140.72L260.802 145.376C264.888 146.975 270.317 148.44 276.384 148.44V143.44V138.44C271.89 138.44 267.719 137.345 264.446 136.064L262.624 140.72ZM276.384 143.44V148.44C284.793 148.44 290.916 145.037 294.682 139.306C298.218 133.925 299.304 127.06 299.304 120.56H294.304H289.304C289.304 126.22 288.309 130.795 286.325 133.814C284.571 136.483 281.734 138.44 276.384 138.44V143.44ZM294.304 120.56H299.304C299.304 111.993 297.332 102.671 288.841 98.0812L286.464 102.48L284.086 106.879C287.436 108.689 289.304 112.807 289.304 120.56H294.304ZM286.464 102.48L288.879 98.1018C285.756 96.3786 281.951 95.5085 278.47 95.1118C274.924 94.7079 271.292 94.7488 268.262 95.116L268.864 100.08L269.465 105.044C271.715 104.771 274.564 104.732 277.338 105.048C280.176 105.371 282.532 106.021 284.048 106.858L286.464 102.48ZM268.864 100.08L268.181 95.1266C265.581 95.4852 262.196 96.2839 259.99 99.4283C258.062 102.178 257.784 105.766 257.784 109.2H262.784H267.784C267.784 107.616 267.87 106.568 267.999 105.867C268.125 105.178 268.252 105.064 268.177 105.171C267.851 105.636 267.507 105.314 269.547 105.033L268.864 100.08ZM262.784 109.2H257.784C257.784 118.805 257.784 129.649 257.624 140.648L262.624 140.72L267.623 140.792C267.784 129.711 267.784 118.795 267.784 109.2H262.784ZM418.335 169.04V164.04C397.645 164.04 372.775 146.354 372.775 114.8H367.775H362.775C362.775 152.366 392.625 174.04 418.335 174.04V169.04ZM367.775 114.8H372.775C372.775 102.558 376.095 89.6263 383.496 79.8844C390.751 70.3346 402.185 63.4797 419.455 63.4797V58.4797V53.4797C399.125 53.4797 384.719 61.7448 375.534 73.835C366.495 85.7331 362.775 100.962 362.775 114.8H367.775ZM419.455 58.4797V63.4797C431.29 63.4797 441.803 67.4018 449.378 75.431C456.965 83.4726 462.135 96.1989 462.135 114.8H467.135H472.135C472.135 94.3605 466.425 78.9268 456.652 68.5684C446.867 58.1976 433.54 53.4797 419.455 53.4797V58.4797ZM467.135 114.8H462.135C462.135 142.108 445.085 164.04 418.335 164.04V169.04V174.04C452.065 174.04 472.135 146.052 472.135 114.8H467.135ZM392.735 114.64H387.735C387.735 126.618 391.341 135.854 397.283 142.136C403.204 148.396 411.078 151.32 418.815 151.32V146.32V141.32C413.592 141.32 408.426 139.364 404.547 135.264C400.689 131.186 397.735 124.582 397.735 114.64H392.735ZM418.815 146.32V151.32C428.082 151.32 435.722 146.911 440.889 139.854C445.977 132.905 448.615 123.517 448.615 113.2H443.615H438.615C438.615 121.923 436.373 129.095 432.821 133.946C429.348 138.689 424.588 141.32 418.815 141.32V146.32ZM443.615 113.2H448.615C448.615 103.066 446.458 93.3717 441.493 86.0525C436.375 78.5101 428.451 73.7997 418.015 73.7997V78.7997V83.7997C425.019 83.7997 429.895 86.7693 433.217 91.6669C436.692 96.7877 438.615 104.294 438.615 113.2H443.615ZM418.015 78.7997V73.7997C407.485 73.7997 399.653 78.952 394.676 86.7762C389.84 94.3793 387.735 104.375 387.735 114.64H392.735H397.735C397.735 105.545 399.63 97.6201 403.114 92.1432C406.457 86.8874 411.265 83.7997 418.015 83.7997V78.7997ZM484.755 86.1597L483.239 90.9243L483.269 90.9339L483.299 90.9431L484.755 86.1597ZM495.315 81.1997L491.104 78.5044L491.097 78.5153L495.315 81.1997ZM484.755 86.1597L486.271 81.3951C485.951 81.2932 486.027 81.2544 486.222 81.4478C486.45 81.6751 486.562 81.9423 486.593 82.0805C486.61 82.1559 486.56 82.0017 486.638 81.4914C486.715 80.9885 486.891 80.2918 487.224 79.3614L482.515 77.6797L477.806 75.998C476.932 78.4452 476.192 81.4171 476.837 84.2789C477.622 87.7598 480.135 89.9367 483.239 90.9243L484.755 86.1597ZM482.515 77.6797L487.224 79.3614C488.916 74.6226 490.235 69.05 490.235 64.7197H485.235H480.235C480.235 67.4294 479.314 71.7768 477.806 75.998L482.515 77.6797ZM485.235 64.7197H490.235C490.235 62.6379 489.323 61.0209 488.814 60.1786C488.538 59.7212 488.221 59.2484 487.988 58.8957C487.731 58.507 487.506 58.1626 487.291 57.8007C486.528 56.5211 485.755 54.8362 485.755 51.9197H480.755H475.755C475.755 57.0032 477.222 60.4383 478.699 62.9187C479.044 63.4967 479.379 64.0074 479.647 64.4124C479.939 64.8535 480.112 65.1131 480.256 65.3507C480.587 65.8985 480.235 65.5214 480.235 64.7197H485.235ZM480.755 51.9197H485.755C485.755 49.5529 486.466 48.2193 487.33 47.4284C488.255 46.5824 490.056 45.7197 493.395 45.7197V40.7197V35.7197C488.414 35.7197 483.895 37.0169 480.58 40.051C477.204 43.14 475.755 47.4065 475.755 51.9197H480.755ZM493.395 40.7197V45.7197C495.567 45.7197 499.755 48.5237 499.755 54.7997H504.755H509.755C509.755 44.4357 502.423 35.7197 493.395 35.7197V40.7197ZM504.755 54.7997H499.755C499.755 61.8579 496.037 70.7962 491.104 78.5044L495.315 81.1997L499.526 83.895C504.833 75.6032 509.755 64.7015 509.755 54.7997H504.755ZM495.315 81.1997L491.097 78.5153C490.487 79.4741 489.472 80.3868 488.358 80.9382C487.211 81.5054 486.474 81.4563 486.211 81.3763L484.755 86.1597L483.299 90.9431C486.716 91.983 490.139 91.214 492.792 89.9012C495.478 88.5726 497.903 86.4453 499.533 83.8841L495.315 81.1997ZM599.051 70.7997L602.239 66.9477L602.194 66.91L602.147 66.8733L599.051 70.7997ZM600.651 85.5197L604.556 88.6432L604.624 88.5579L604.688 88.4698L600.651 85.5197ZM585.771 87.4397L588.961 83.5896L588.902 83.5403L588.841 83.4929L585.771 87.4397ZM588.011 133.52L584.215 130.266L584.094 130.408L583.983 130.558L588.011 133.52ZM602.891 133.2L599.541 136.912L599.595 136.96L599.649 137.006L602.891 133.2ZM601.451 151.76L605.066 155.214L605.086 155.193L605.107 155.172L601.451 151.76ZM566.091 168.4V163.4C553.059 163.4 542.514 159.817 535.207 152.425C527.899 145.031 523.091 133.077 523.091 114.8H518.091H513.091C513.091 134.763 518.364 149.609 528.095 159.455C537.829 169.303 551.283 173.4 566.091 173.4V168.4ZM518.091 114.8H523.091C523.091 97.8146 525.944 84.905 532.193 76.323C538.203 68.0694 547.977 62.9997 564.011 62.9997V57.9997V52.9997C545.646 52.9997 532.459 58.97 524.109 70.4364C515.999 81.5744 513.091 97.0648 513.091 114.8H518.091ZM564.011 57.9997V62.9997C578.957 62.9997 588.129 68.5552 595.955 74.726L599.051 70.7997L602.147 66.8733C593.333 59.9242 582.025 52.9997 564.011 52.9997V57.9997ZM599.051 70.7997L595.863 74.6517C598.125 76.5233 598.369 80.1678 596.614 82.5696L600.651 85.5197L604.688 88.4698C609.013 82.5516 609.258 72.7561 602.239 66.9477L599.051 70.7997ZM600.651 85.5197L596.747 82.3962C596.142 83.1527 594.769 84.1703 593.164 84.5627C591.766 84.9044 590.369 84.7561 588.961 83.5896L585.771 87.4397L582.581 91.2898C586.773 94.7633 591.536 95.255 595.539 94.2767C599.333 93.3491 602.601 91.0867 604.556 88.6432L600.651 85.5197ZM585.771 87.4397L588.841 83.4929C586.358 81.5619 583.303 78.8112 579.607 76.8587C575.621 74.7531 570.882 73.4797 564.331 73.4797V78.4797V83.4797C569.46 83.4797 572.561 84.4463 574.936 85.7007C577.6 87.1082 579.424 88.8375 582.702 91.3865L585.771 87.4397ZM564.331 78.4797V73.4797C555.064 73.4797 547.578 77.0044 542.682 84.3995C538.039 91.4122 536.131 101.312 536.131 113.36H541.131H546.131C546.131 102.048 547.983 94.5072 551.02 89.9199C553.804 85.715 557.919 83.4797 564.331 83.4797V78.4797ZM541.131 113.36H536.131C536.131 125.772 538.712 135.239 544.164 141.642C549.754 148.205 557.6 150.68 566.091 150.68V145.68V140.68C559.543 140.68 554.909 138.835 551.778 135.158C548.511 131.321 546.131 124.628 546.131 113.36H541.131ZM566.091 145.68V150.68C578.59 150.68 587.58 142.547 592.04 136.482L588.011 133.52L583.983 130.558C580.443 135.373 574.072 140.68 566.091 140.68V145.68ZM588.011 133.52L591.808 136.774C592.77 135.651 593.866 134.974 594.849 134.819C595.596 134.701 597.133 134.738 599.541 136.912L602.891 133.2L606.241 129.488C602.09 125.742 597.626 124.259 593.293 124.941C589.197 125.586 586.133 128.029 584.215 130.266L588.011 133.52ZM602.891 133.2L599.649 137.006C601.265 138.383 603.085 142.681 597.796 148.348L601.451 151.76L605.107 155.172C613.257 146.439 613.157 135.377 606.134 129.394L602.891 133.2ZM601.451 151.76L597.836 148.306C594.117 152.198 591.247 155.696 586.664 158.526C582.283 161.231 576.101 163.4 566.091 163.4V168.4V173.4C577.681 173.4 585.739 170.849 591.918 167.034C597.895 163.344 601.905 158.522 605.066 155.214L601.451 151.76ZM636.536 169.84L636.287 164.846L636.237 164.849L636.188 164.852L636.536 169.84ZM624.856 63.4397L629.855 63.5358L629.856 63.5244L624.856 63.4397ZM647.576 63.2797L652.576 63.2882V63.2797H647.576ZM647.416 157.52L642.416 157.512V157.52H647.416ZM636.536 169.84L636.188 164.852C633.781 165.02 632.29 164.383 631.429 163.587C630.588 162.81 629.696 161.279 629.696 158.32H624.696H619.696C619.696 163.361 621.285 167.83 624.643 170.933C627.983 174.017 632.411 175.14 636.884 174.828L636.536 169.84ZM624.696 158.32H629.696C629.696 137.949 629.697 71.7921 629.855 63.5358L624.856 63.4397L619.857 63.3436C619.696 71.7273 619.696 138.051 619.696 158.32H624.696ZM624.856 63.4397L629.856 63.5244C629.93 59.1553 630.729 57.1156 631.494 56.1765C632.044 55.5002 633.163 54.6797 636.376 54.6797V49.6797V44.6797C631.429 44.6797 626.868 46.0191 623.739 49.8629C620.823 53.4438 619.943 58.2841 619.857 63.355L624.856 63.4397ZM636.376 49.6797V54.6797C638.733 54.6797 640.006 55.4072 640.792 56.3404C641.689 57.4062 642.576 59.4921 642.576 63.2797H647.576H652.576C652.576 58.1073 651.383 53.3932 648.441 49.899C645.387 46.2722 641.059 44.6797 636.376 44.6797V49.6797ZM647.576 63.2797L642.576 63.2712L642.416 157.512L647.416 157.52L652.416 157.528L652.576 63.2882L647.576 63.2797ZM647.416 157.52H642.416C642.416 161.274 639.414 164.69 636.287 164.846L636.536 169.84L636.786 174.834C646.458 174.35 652.416 165.286 652.416 157.52H647.416ZM712.229 170.16V165.16C701.841 165.16 692.359 162.214 685.528 156.017C678.79 149.903 674.029 140.079 674.029 125.04H669.029H664.029C664.029 142.321 669.588 155.057 678.809 163.423C687.939 171.706 700.057 175.16 712.229 175.16V170.16ZM669.029 125.04H674.029C674.029 112.41 678.006 102.042 684.589 94.8844C691.137 87.7644 700.569 83.4797 712.229 83.4797V78.4797V73.4797C697.969 73.4797 685.8 78.795 677.229 88.115C668.691 97.3976 664.029 110.31 664.029 125.04H669.029ZM712.229 78.4797V83.4797C723.53 83.4797 732.596 86.5183 738.853 92.7752C745.103 99.0255 749.309 109.246 749.309 125.2H754.309H759.309C759.309 107.554 754.634 94.4139 745.924 85.7042C737.221 77.0011 725.248 73.4797 712.229 73.4797V78.4797ZM754.309 125.2H749.309C749.309 136.94 746.203 146.904 740.267 153.852C734.434 160.68 725.391 165.16 712.229 165.16V170.16V175.16C727.866 175.16 739.863 169.72 747.87 160.348C755.775 151.096 759.309 138.58 759.309 125.2H754.309ZM691.429 124.56H686.429C686.429 132.537 688.743 139.801 693.3 145.159C697.921 150.593 704.572 153.72 712.389 153.72V148.72V143.72C707.406 143.72 703.576 141.807 700.918 138.681C698.195 135.479 696.429 130.663 696.429 124.56H691.429ZM712.389 148.72V153.72C721.311 153.72 727.943 149.985 732.183 144.194C736.27 138.611 737.869 131.511 737.869 124.88H732.869H727.869C727.869 130.089 726.587 134.909 724.114 138.286C721.795 141.455 718.186 143.72 712.389 143.72V148.72ZM732.869 124.88H737.869C737.869 114.982 735.392 107.262 730.489 101.994C725.541 96.6774 718.818 94.5997 711.909 94.5997V99.5997V104.6C716.84 104.6 720.596 106.042 723.169 108.806C725.786 111.618 727.869 116.538 727.869 124.88H732.869ZM711.909 99.5997V94.5997C703.413 94.5997 696.762 97.969 692.389 103.8C688.167 109.429 686.429 116.856 686.429 124.56H691.429H696.429C696.429 118.184 697.89 113.131 700.389 109.8C702.736 106.671 706.324 104.6 711.909 104.6V99.5997ZM844.106 91.1197L840.332 94.3991L840.338 94.4056L840.343 94.4122L844.106 91.1197ZM841.866 105.36L839.462 100.976L839.377 101.023L839.294 101.073L841.866 105.36ZM827.146 104.56L823.242 107.683L823.278 107.729L823.315 107.773L827.146 104.56ZM832.426 141.68L829.854 137.393L829.726 137.469L829.603 137.553L832.426 141.68ZM841.706 145.2L837.546 147.973L837.559 147.993L837.572 148.012L841.706 145.2ZM839.786 160.56L836.626 156.686L836.6 156.706L836.575 156.727L839.786 160.56ZM812.586 169.36V164.36C795.819 164.36 773.106 151.294 773.106 124.4H768.106H763.106C763.106 158.306 791.913 174.36 812.586 174.36V169.36ZM768.106 124.4H773.106C773.106 99.609 792.491 82.9997 815.306 82.9997V77.9997V72.9997C787.562 72.9997 763.106 93.5104 763.106 124.4H768.106ZM815.306 77.9997V82.9997C821.097 82.9997 825.42 83.7794 829.155 85.4597C832.887 87.138 836.41 89.885 840.332 94.3991L844.106 91.1197L847.881 87.8403C843.323 82.5944 838.686 78.7814 833.257 76.3397C827.833 73.9 821.996 72.9997 815.306 72.9997V77.9997ZM844.106 91.1197L840.343 94.4122C840.882 95.0282 841.364 96.372 841.149 98.0084C840.94 99.5959 840.205 100.568 839.462 100.976L841.866 105.36L844.27 109.744C848.487 107.432 850.552 103.204 851.064 99.311C851.569 95.4674 850.69 91.0512 847.869 87.8272L844.106 91.1197ZM841.866 105.36L839.294 101.073C837.282 102.279 835.507 102.87 834.149 102.901C833.055 102.927 832.047 102.623 830.977 101.347L827.146 104.56L823.315 107.773C826.405 111.457 830.357 112.993 834.383 112.899C838.146 112.81 841.65 111.321 844.439 109.647L841.866 105.36ZM827.146 104.56L831.051 101.437C827.545 97.0542 822.27 93.7997 813.706 93.7997V98.7997V103.8C819.222 103.8 821.628 105.666 823.242 107.683L827.146 104.56ZM813.706 98.7997V93.7997C806.974 93.7997 800.04 95.987 794.763 101.113C789.432 106.291 786.306 113.964 786.306 123.92H791.306H796.306C796.306 116.116 798.701 111.229 801.73 108.287C804.812 105.293 809.078 103.8 813.706 103.8V98.7997ZM791.306 123.92H786.306C786.306 131.717 788.667 139.046 794.274 144.397C799.858 149.726 807.976 152.44 818.186 152.44V147.44V142.44C809.677 142.44 804.355 140.194 801.178 137.163C798.025 134.154 796.306 129.723 796.306 123.92H791.306ZM818.186 147.44V152.44C827.612 152.44 832.754 147.514 835.25 145.807L832.426 141.68L829.603 137.553C826.019 140.006 823.8 142.44 818.186 142.44V147.44ZM832.426 141.68L834.999 145.967C835.093 145.911 835.155 145.887 835.185 145.877C835.214 145.868 835.228 145.867 835.231 145.867C835.235 145.866 835.248 145.866 835.277 145.87C835.306 145.875 835.363 145.888 835.449 145.922C835.831 146.075 836.633 146.604 837.546 147.973L841.706 145.2L845.867 142.427C844.22 139.956 841.982 137.765 839.163 136.638C836.161 135.437 832.838 135.602 829.854 137.393L832.426 141.68ZM841.706 145.2L837.572 148.012C838.518 149.403 839.079 150.997 839.047 152.41C839.021 153.609 838.577 155.094 836.626 156.686L839.786 160.56L842.947 164.434C847.076 161.066 848.951 156.871 849.045 152.63C849.134 148.603 847.615 144.997 845.841 142.388L841.706 145.2ZM839.786 160.56L836.575 156.727C833.713 159.125 831.387 160.885 828.101 162.157C824.778 163.444 820.119 164.36 812.586 164.36V169.36V174.36C820.893 174.36 826.874 173.356 831.712 171.483C836.585 169.595 839.939 166.955 842.997 164.393L839.786 160.56ZM874.598 169.84L874.348 164.846L874.299 164.849L874.25 164.852L874.598 169.84ZM862.918 64.7197L867.917 64.8158V64.8044L862.918 64.7197ZM885.158 106.64H880.158V117.59L888.432 110.418L885.158 106.64ZM918.598 81.6797L915.987 77.4154L915.964 77.4292L915.942 77.4433L918.598 81.6797ZM935.398 83.7597L931.149 86.3965L931.158 86.4102L931.166 86.4238L935.398 83.7597ZM930.438 97.5197L933.468 101.497L933.471 101.495L930.438 97.5197ZM904.838 118.16L901.702 114.265L901.687 114.278L901.671 114.29L904.838 118.16ZM905.158 122.32L908.421 118.532L908.411 118.524L905.158 122.32ZM935.878 151.92L939.809 148.831L939.769 148.78L939.728 148.731L935.878 151.92ZM919.238 165.52L915.648 169.001L915.654 169.007L919.238 165.52ZM884.998 134L888.145 130.115L879.998 123.514V134H884.998ZM874.598 169.84L874.25 164.852C871.843 165.02 870.351 164.383 869.49 163.587C868.649 162.81 867.758 161.279 867.758 158.32H862.758H857.758C857.758 163.361 859.346 167.83 862.705 170.933C866.044 174.017 870.472 175.14 874.945 174.828L874.598 169.84ZM862.758 158.32H867.758C867.758 137.949 867.758 73.0721 867.917 64.8158L862.918 64.7197L857.918 64.6236C857.757 73.0073 857.758 138.051 857.758 158.32H862.758ZM862.918 64.7197L867.917 64.8044C867.992 60.3451 868.741 58.3138 869.465 57.3934C869.938 56.7931 870.956 55.9597 874.278 55.9597V50.9597V45.9597C869.279 45.9597 864.697 47.2863 861.61 51.206C858.774 54.8056 858.003 59.6543 857.918 64.635L862.918 64.7197ZM874.278 50.9597V55.9597C876.512 55.9597 877.685 56.6559 878.423 57.5603C879.292 58.625 880.158 60.7313 880.158 64.5597H885.158H890.158C890.158 59.4281 889.023 54.7344 886.172 51.2391C883.19 47.5835 878.923 45.9597 874.278 45.9597V50.9597ZM885.158 64.5597H880.158V106.64H885.158H890.158V64.5597H885.158ZM885.158 106.64L888.432 110.418C897.869 102.24 910.783 92.4793 921.253 85.9161L918.598 81.6797L915.942 77.4433C904.972 84.3201 891.646 94.3999 881.883 102.862L885.158 106.64ZM918.598 81.6797L921.208 85.944C924.349 84.0212 926.576 83.8372 927.93 84.0929C929.263 84.3446 930.364 85.1312 931.149 86.3965L935.398 83.7597L939.646 81.1229C937.551 77.7482 934.172 75.0947 929.785 74.2665C925.419 73.4422 920.686 74.5381 915.987 77.4154L918.598 81.6797ZM935.398 83.7597L931.166 86.4238C931.752 87.3534 931.789 88.0439 931.503 88.8535C931.131 89.9081 930.03 91.5409 927.404 93.5449L930.438 97.5197L933.471 101.495C936.925 98.8585 939.664 95.7712 940.932 92.1859C942.286 88.3555 941.763 84.486 939.629 81.0956L935.398 83.7597ZM930.438 97.5197L927.407 93.5425C920.623 98.7114 908.128 109.094 901.702 114.265L904.838 118.16L907.973 122.055C914.667 116.666 926.812 106.568 933.468 101.497L930.438 97.5197ZM904.838 118.16L901.671 114.29C901.148 114.718 900.417 115.354 899.81 116.174C899.151 117.066 898.443 118.443 898.5 120.221C898.555 121.922 899.29 123.22 899.899 124.041C900.5 124.852 901.238 125.546 901.904 126.116L905.158 122.32L908.411 118.524C907.957 118.134 907.875 118.008 907.931 118.084C907.995 118.17 908.46 118.818 908.495 119.899C908.532 121.057 908.054 121.844 907.85 122.121C907.698 122.326 907.647 122.322 908.004 122.03L904.838 118.16ZM905.158 122.32L901.894 126.108C912.338 135.106 923.857 145.244 932.027 155.109L935.878 151.92L939.728 148.731C930.938 138.116 918.777 127.454 908.421 118.532L905.158 122.32ZM935.878 151.92L931.946 155.009C933.844 157.424 934.071 159.316 933.888 160.588C933.687 161.987 932.898 163.235 931.893 164.065L935.078 167.92L938.262 171.775C940.937 169.565 943.188 166.173 943.787 162.012C944.404 157.724 943.192 153.136 939.809 148.831L935.878 151.92ZM935.078 167.92L931.893 164.065C930.439 165.266 926.97 166.297 922.821 162.033L919.238 165.52L915.654 169.007C923.025 176.583 932.356 176.654 938.262 171.775L935.078 167.92ZM919.238 165.52L922.827 162.039C917.629 156.679 900.996 140.526 888.145 130.115L884.998 134L881.85 137.885C894.279 147.954 910.606 163.801 915.648 169.001L919.238 165.52ZM884.998 134H879.998V157.52H884.998H889.998V134H884.998ZM884.998 157.52H879.998C879.998 161.588 877.213 164.703 874.348 164.846L874.598 169.84L874.847 174.834C884.782 174.337 889.998 164.972 889.998 157.52H884.998Z" fill="white"/>
</g>
</svg>
