<svg version="1.2" xmlns="http://www.w3.org/2000/svg" viewBox="0 0 1600 1163" width="1600" height="1163">
	<title>kakao_login_original</title>
	<style>
		tspan { white-space:pre } 
		.s0 { fill: #fee500 } 
		.s1 { fill-opacity: .9;fill: #000000 } 
		.t2 { font-size: 30px;fill: #191919;font-weight: 500;font-family: "Apple SD Gothic Neo" } 
	</style>
	<g id="국문">
		<g id="Large and Narrow (600px X 90px)">
			<path id="Rounded Rectangle 3" fill-rule="evenodd" class="s0" d="m512 520h576c6.6 0 12 5.4 12 12v66c0 6.6-5.4 12-12 12h-576c-6.6 0-12-5.4-12-12v-66c0-6.6 5.4-12 12-12z"/>
			<path id="Shape 2" fill-rule="evenodd" class="s1" d="m546 548c-9.9 0-18 6.2-18 13.9 0 4.8 3.1 9.1 7.9 11.6l-2 7.3c-0.2 0.7 0.5 1.2 1.1 0.8l8.7-5.8q1.2 0.1 2.3 0.1c9.9 0 18-6.2 18-14 0-7.7-8.1-13.9-18-13.9"/>
			<text id="카카오계정으로 시작하기" style="transform: matrix(1,0,0,1,819.887,576.977)" >
				<tspan x="-154.9" y="0" class="t2" dx="0 0 0" >카카오</tspan><tspan  y="0" class="t2" dx="0" >계</tspan><tspan  y="0" class="t2" dx="0" >정</tspan><tspan  y="0" class="t2" dx="0" >으</tspan><tspan  y="0" class="t2" dx="0 0 0 0 0" >로 시작하</tspan><tspan  y="0" class="t2" dx="0" >기</tspan><tspan  y="0" class="t2" dx="0" >
</tspan>
			</text>
		</g>
	</g>
</svg>